<svg width="88" height="88" viewBox="0 0 88 88" fill="none" xmlns="http://www.w3.org/2000/svg">
<path d="M28.1453 25.6902C28.1041 25.0482 27.958 24.4673 27.7199 23.9577C27.4398 23.357 27.0316 22.8559 26.5134 22.4744C25.77 21.9252 24.8015 21.6227 23.6654 21.6227C21.1268 21.6227 19.4149 23.1206 19.1984 25.5312C19.1821 25.7056 19.1743 25.8887 19.1743 26.0752C19.1743 26.9131 19.341 27.8154 19.6487 28.6619C19.7054 28.82 19.7673 28.9756 19.8343 29.1285C20.0028 29.5135 20.1953 29.8736 20.4127 30.2036C20.5124 30.3583 20.6181 30.5061 20.7289 30.647C21.5591 31.7084 22.6024 32.2927 23.6654 32.2927C24.151 32.2927 24.6133 32.1759 25.0447 31.9662C25.5423 31.723 25.9978 31.3569 26.3974 30.9049C26.5976 30.6771 26.7849 30.4288 26.956 30.1615L26.962 30.152C27.7113 28.9833 28.1574 27.4888 28.1574 26.0752C28.1574 25.9445 28.1531 25.8156 28.1453 25.6902ZM22.0816 29.5874C21.8246 29.2591 21.5986 28.8733 21.4096 28.4402C21.077 27.6779 20.8931 26.8383 20.8931 26.0752C20.8931 25.9402 20.8991 25.8096 20.9103 25.6859C21.0933 23.6457 22.7149 23.3415 23.6654 23.3415C24.701 23.3415 26.4386 23.6964 26.4386 26.0752C26.4386 27.2181 26.0485 28.3963 25.4838 29.26L25.483 29.2617C24.9682 30.0481 24.3082 30.574 23.6654 30.574C22.9599 30.574 22.3703 29.9561 22.0816 29.5874Z" fill="white"/>
<path d="M29.1742 40.7241C28.6044 40.7241 28.0398 40.5677 27.55 40.2643L22.2554 36.9875L23.1594 35.5257L28.4549 38.8025C28.7797 39.0036 29.1794 39.0586 29.5515 38.9529C29.9115 38.8515 30.1977 38.6195 30.3584 38.2998L33.3671 32.3099C33.4229 32.1982 33.3774 32.0676 33.2588 31.9988C33.1136 31.9155 32.9185 31.9559 32.8343 32.0891L30.1367 36.2957C29.9356 36.6085 29.5927 36.8027 29.218 36.8148C28.8451 36.8268 28.4884 36.6541 28.2676 36.3541L24.5851 31.3405L25.9705 30.323L29.1493 34.6517L31.3871 31.1627C31.9715 30.2517 33.1703 29.9664 34.1165 30.5112C35.0205 31.032 35.366 32.1612 34.9028 33.0834L31.8941 39.0732C31.5203 39.8183 30.8371 40.3777 30.019 40.6089C29.7414 40.6854 29.4569 40.7241 29.1742 40.7241ZM41.9815 58.0173C41.263 58.0173 40.5583 57.6967 40.0994 57.1003L35.5791 51.2308L31.6741 53.4153L30.8345 51.9148L34.7808 49.7071C35.4958 49.3075 36.4093 49.4914 36.906 50.1359L41.4615 56.051C41.6558 56.3028 42.0313 56.3724 42.3158 56.2091C42.5951 56.0493 42.6947 55.7167 42.5426 55.4503L37.7714 47.0774C37.199 46.0728 35.9822 45.5512 34.8126 45.809L29.3598 47.0121L28.9894 45.3337L34.4422 44.1306C36.3397 43.7121 38.3231 44.5732 39.265 46.2266L44.0362 54.5995C44.6541 55.6841 44.2648 57.0754 43.1683 57.7019C42.7962 57.915 42.3862 58.0173 41.9815 58.0173Z" fill="white"/>
<path d="M29.9596 76.5385C29.8118 76.5385 29.6631 76.5274 29.5127 76.5033C28.1901 76.2936 27.2294 75.1936 27.2294 73.8882C27.2294 73.7722 27.238 73.651 27.2543 73.5299L28.8459 62.1002C28.8776 61.8716 28.8055 61.6387 28.6482 61.4599C28.0982 60.8378 27.0145 59.6157 25.936 58.4178C23.8752 56.1284 23.2015 55.4469 22.9841 55.2449C22.9368 55.2226 22.8912 55.1968 22.8483 55.1659C22.0946 54.6271 21.518 54.1097 21.0341 53.5374L22.3464 52.4271C22.7073 52.8542 23.1439 53.2512 23.7111 53.668C23.9354 53.7703 24.1219 53.9524 24.2783 54.1046C24.4648 54.2867 24.714 54.5437 25.0414 54.8909C25.5742 55.4581 26.3055 56.2573 27.2139 57.2671C28.2967 58.4693 29.3847 59.6965 29.9364 60.3213C30.4271 60.8764 30.6497 61.6112 30.5483 62.3374L28.9567 73.7636C28.9507 73.8066 28.9481 73.8487 28.9481 73.8874C28.9481 74.3428 29.2996 74.7287 29.7834 74.8052C30.2948 74.8868 30.7949 74.5843 30.923 74.116L34.2367 62.0658C34.4292 61.3637 34.3562 60.6152 34.0322 59.9586L29.7233 51.2411C29.7155 51.2248 29.7078 51.2085 29.7009 51.1921C29.6889 51.1638 29.6786 51.1363 29.6674 51.1079C29.5858 50.9 29.5187 50.6868 29.4689 50.4746L26.8289 39.2339L28.5021 38.8412L31.1421 50.0827C31.173 50.2167 31.2151 50.3508 31.2676 50.4823C31.2693 50.4874 31.2719 50.4926 31.2736 50.4978C31.2744 50.5012 31.2762 50.5046 31.277 50.5081L35.5713 59.1964C36.0826 60.2302 36.1969 61.4101 35.8927 62.5196L32.579 74.5714C32.2559 75.7505 31.173 76.5385 29.9596 76.5385ZM19.1538 48.0554C18.9845 45.4618 18.4311 42.6714 17.8957 39.9721C17.698 38.9735 17.5107 38.0299 17.3405 37.0915C17.0999 35.7595 16.8009 34.1009 17.0973 32.4672C17.4385 30.5921 18.6012 29.0443 20.1309 28.4299L20.772 30.0249C19.5921 30.4992 18.9742 31.7565 18.7886 32.7749C18.5651 34.0046 18.7576 35.2653 19.0318 36.7856C19.1985 37.7103 19.385 38.6461 19.5809 39.6378C20.1266 42.3913 20.6912 45.2375 20.8674 47.9437L19.1538 48.0554Z" fill="white"/>
<path d="M20.8672 57.2026C20.2012 57.9408 19.0814 58.5037 18.1885 58.037C17.4417 57.6451 17.214 56.7342 17.0619 55.9281C16.7886 54.4818 16.5153 53.0346 16.242 51.5883C16.1759 51.2342 16.1131 50.8466 16.2936 50.5312C16.4234 50.3035 16.658 50.1531 16.884 50.0122C18.1078 49.2456 19.3315 48.4799 20.3017 47.7709C20.3198 47.7615 20.337 47.7512 20.355 47.7417C20.3636 47.8697 20.3705 47.9978 20.3774 48.1258C20.4848 50.2485 21.1371 51.6656 22.0334 52.7235C22.3978 54.2807 21.9543 55.9969 20.8672 57.2026Z" fill="white"/>
<path d="M22.9683 53.0664C22.9451 52.8851 22.9124 52.7054 22.8703 52.5275C22.8394 52.3952 22.7767 52.2715 22.689 52.1675C21.8262 51.1491 21.3664 49.9219 21.2504 48.3149C21.2444 48.2376 21.2401 48.1585 21.2358 48.0794C21.2281 47.9479 21.2212 47.8156 21.2126 47.6841C21.1937 47.4014 21.0364 47.147 20.7932 47.0035C20.7872 46.9992 20.7803 46.9949 20.7735 46.9915C20.6179 46.9047 20.4409 46.8694 20.269 46.8866C20.1607 46.8969 20.0533 46.9287 19.9536 46.982C19.9381 46.9897 19.9235 46.9983 19.9089 47.0061L19.902 47.0104C19.8642 47.0301 19.829 47.0525 19.7946 47.0774C19.5815 47.2329 19.3546 47.3928 19.1166 47.5543C18.3062 48.1078 17.3703 48.6939 16.4577 49.2654L16.4293 49.2825C16.1741 49.4424 15.7874 49.683 15.5476 50.1041C15.203 50.7065 15.325 51.3571 15.3972 51.7481L16.217 56.0871C16.3554 56.8193 16.6124 58.1805 17.7906 58.7984C18.1446 58.984 18.5167 59.0648 18.8871 59.0648C19.3838 59.0648 19.8788 58.9196 20.33 58.6858C20.7803 58.4529 21.1868 58.1315 21.5056 57.7783C22.1725 57.0384 22.6331 56.1318 22.8592 55.1727C23.0207 54.4843 23.0611 53.7676 22.9683 53.0664ZM18.5881 57.2756C18.2005 57.0728 18.0312 56.4317 17.9066 55.7683L17.0867 51.4301C17.0661 51.3218 17.0128 51.034 17.0386 50.9592C17.0756 50.905 17.2535 50.7942 17.3403 50.7401L17.3703 50.722C18.1317 50.2442 18.9103 49.7569 19.6288 49.2808C19.8548 50.7796 20.385 52.0394 21.2358 53.1059C21.2495 53.1824 21.2616 53.258 21.2702 53.3354C21.2899 53.4969 21.3003 53.6602 21.3003 53.8235V53.8364C21.2977 54.8487 20.9187 55.8628 20.2286 56.6268C19.7749 57.1304 19.0358 57.5102 18.5881 57.2756Z" fill="white"/>
<path d="M20.4276 48.7515L19.5957 47.2476C22.4247 45.6826 25.4876 44.6084 28.699 44.055L28.9912 45.7488C25.9688 46.2696 23.0882 47.2802 20.4276 48.7515ZM26.8608 30.2886L25.4833 29.2608L28.5444 25.1556C28.6458 25.019 28.718 24.8677 28.7583 24.7061L29.7526 20.7066C29.7767 20.6112 29.7148 20.5141 29.6057 20.4754C29.4776 20.4299 29.3315 20.4823 29.28 20.5923L27.5423 24.3409L25.9834 23.6182L27.7211 19.8687C28.1422 18.9604 29.2224 18.5152 30.1806 18.8547C31.1259 19.1898 31.6587 20.1635 31.4215 21.12L30.4272 25.1195C30.3319 25.5045 30.1617 25.862 29.9228 26.1817L26.8608 30.2886ZM31.1569 51.315L29.7801 50.2863C30.4083 49.445 31.0795 48.6019 31.7283 47.7864C34.7052 44.0455 37.5162 40.5126 37.0393 36.6248L38.7451 36.4151C39.3097 41.0179 36.1395 45.0029 33.0733 48.8554C32.4322 49.6615 31.7696 50.4943 31.1569 51.315ZM17.7944 76.3494L16.7202 75.0071C21.1194 71.4862 22.643 66.8293 24.2569 61.899C24.727 60.463 25.2126 58.9789 25.7729 57.5308L27.3756 58.1513C26.8316 59.5564 26.353 61.019 25.8897 62.4327C24.2698 67.387 22.5932 72.508 17.7944 76.3494Z" fill="white"/>
<path d="M49.7619 76.2712C46.651 73.0047 45.3155 70.7214 43.4988 66.837C41.5145 62.5951 41.0264 59.681 41.915 57.3865C42.5019 55.8714 43.7145 54.6562 45.6068 53.6911C42.0602 49.0273 40.3225 44.6858 40.3054 40.4568L36.6049 36.3249C36.0918 35.7526 35.4542 35.0401 35.1809 34.1077C35.0417 33.6351 35.0245 33.1658 35.009 32.7533C35.0004 32.529 34.9927 32.3168 34.9669 32.1208C34.6043 29.3451 33.6143 26.449 32.6131 25.2338C29.6689 21.6597 28.5182 17.7865 28.7648 12.283L30.4818 12.3604C30.2524 17.4685 31.2536 20.8819 33.9391 24.1415C35.1603 25.624 36.2577 28.7409 36.6702 31.8983C36.7063 32.1733 36.7157 32.4354 36.7252 32.6889C36.7381 33.0318 36.7501 33.3566 36.8283 33.6239C36.9925 34.1833 37.4454 34.6886 37.8836 35.1785L41.8058 39.5579C41.9502 39.7194 42.0284 39.93 42.025 40.1465C41.9493 44.3248 43.7798 48.687 47.6212 53.4806C47.7905 53.6911 47.8498 53.9696 47.7828 54.2308C47.7157 54.4921 47.5293 54.7078 47.28 54.8109C45.2261 55.6643 44.0299 56.6801 43.5151 58.0078C42.819 59.8039 43.3071 62.3786 45.0525 66.1091C46.822 69.8904 48.0397 71.9735 51.0037 75.0861L49.7619 76.2712ZM56.6326 69.1926C55.3521 64.8355 55.4578 60.0668 56.9308 55.7665C57.333 54.5926 57.9672 53.142 59.3147 52.3411C61.1263 51.2651 63.3555 51.8555 64.929 52.9607C66.1562 51.8349 67.4049 51.3296 68.651 51.4576C70.215 51.6183 71.5325 52.7364 72.568 54.7808C72.6711 54.9845 72.7717 55.1916 72.8731 55.3996C73.4016 56.4867 73.9009 57.5145 74.7783 58.0877L73.8373 59.5263C72.5637 58.6927 71.9072 57.3426 71.3279 56.1515C71.2308 55.9522 71.1346 55.7536 71.0357 55.5586C70.5175 54.5351 69.6521 53.2898 68.4757 53.1686C67.3929 53.0578 66.3272 53.9369 65.6251 54.694C65.3054 55.0386 64.7675 55.0627 64.4186 54.7473C63.2782 53.7169 61.4597 53.0672 60.193 53.8201C59.3276 54.334 58.8636 55.4288 58.5568 56.3243C57.1972 60.2911 57.1001 64.6894 58.2809 68.7079L56.6326 69.1926ZM56.6232 41.4717C56.1866 39.2983 56.6954 36.8947 58.0171 34.8786C59.0028 33.3747 60.3838 32.1741 61.9427 31.4351C59.5932 29.3726 58.4287 26.088 59.0191 23.0682C57.6656 22.8619 56.2957 22.0154 55.0617 20.6009C54.7566 20.2511 54.467 19.8876 54.186 19.5353C53.5071 18.6828 52.8617 17.8724 52.0504 17.3043L51.6732 17.4444L51.3853 16.6718C51.2581 16.3307 51.3604 15.9457 51.6397 15.7119C51.9198 15.4782 52.316 15.4472 52.6296 15.6329C53.856 16.3616 54.7068 17.4298 55.53 18.4636C55.8111 18.816 56.0757 19.1494 56.3559 19.47C57.0614 20.2778 58.4743 21.5995 60.0134 21.3726C60.3116 21.3288 60.6115 21.4448 60.8032 21.6777C60.9948 21.9106 61.0498 22.2277 60.9484 22.5113C59.8536 25.5844 61.2793 29.2858 64.1943 30.9383C64.5002 31.1119 64.6695 31.454 64.6222 31.802C64.575 32.1501 64.3197 32.4345 63.9786 32.5196C60.2257 33.4546 57.5762 37.479 58.3093 41.1322L56.6232 41.4717ZM45.1634 34.3629C43.5366 32.169 43.5976 29.0288 45.3086 26.8958L46.6493 27.9709C45.4393 29.48 45.3937 31.7874 46.5444 33.3386L45.1634 34.3629Z" fill="white"/>
</svg>
