<svg width="88" height="88" viewBox="0 0 88 88" fill="none" xmlns="http://www.w3.org/2000/svg">
<path d="M31.0445 39.4872C30.911 39.6088 30.8028 39.7555 30.7262 39.9189C30.6495 40.0824 30.6058 40.2594 30.5976 40.4397C30.5894 40.6201 30.6169 40.8003 30.6785 40.97C30.7401 41.1397 30.8346 41.2956 30.9565 41.4287L32.0428 42.6222C32.689 43.3262 33.0438 44.242 33.0438 45.3392C33.0438 46.0982 33.6598 46.6455 34.4188 46.6455C35.1778 46.6455 35.7938 45.9635 35.7938 45.2045C35.7938 43.5545 35.1805 41.9787 34.0723 40.7687L32.986 39.578C32.7405 39.3086 32.3981 39.1478 32.0341 39.1308C31.67 39.1138 31.3141 39.242 31.0445 39.4872Z" fill="white"/>
<path d="M55.0879 39.578L54.0016 40.7687C52.8691 42.02 52.2538 43.6545 52.2801 45.342C52.2801 46.101 52.8961 46.6482 53.6551 46.6482C54.4141 46.6482 55.0301 45.9662 55.0301 45.2072C55.0301 44.2475 55.3849 43.3317 56.0311 42.625L57.1174 41.4342C57.2393 41.3011 57.3338 41.1452 57.3954 40.9755C57.457 40.8058 57.4845 40.6256 57.4763 40.4452C57.4681 40.2649 57.4244 40.0879 57.3477 39.9244C57.271 39.761 57.1629 39.6143 57.0294 39.4927C56.8966 39.3703 56.7409 39.2753 56.5712 39.2133C56.4016 39.1513 56.2213 39.1234 56.0409 39.1313C55.8604 39.1392 55.6833 39.1828 55.5197 39.2595C55.3562 39.3361 55.2094 39.4444 55.0879 39.578Z" fill="white"/>
<path d="M27.5439 46.7143C27.9086 46.7143 28.2584 46.5694 28.5162 46.3116C28.7741 46.0537 28.9189 45.704 28.9189 45.3393V40.6423C28.9189 39.3058 29.6339 38.0463 30.7807 37.356L35.9149 34.276L38.6429 37.686C38.764 37.8369 38.9155 37.9607 39.0874 38.0493C39.2594 38.1378 39.4481 38.1893 39.6412 38.2003L39.7154 38.203C40.0784 38.203 40.4304 38.0573 40.6889 37.8015L42.6579 35.8325V45.342C42.6579 45.7067 42.8028 46.0564 43.0607 46.3143C43.3185 46.5722 43.6683 46.717 44.0329 46.717C44.3976 46.717 44.7474 46.5722 45.0052 46.3143C45.2631 46.0564 45.4079 45.7067 45.4079 45.342V35.7858L47.4209 37.8015C47.6795 38.059 48.0296 38.2034 48.3944 38.203L48.4687 38.2003C48.6621 38.1903 48.8511 38.1393 49.0232 38.0507C49.1953 37.962 49.3466 37.8377 49.4669 37.686L52.1894 34.2843L57.3072 37.356C58.4567 38.0463 59.1689 39.3058 59.1689 40.6423V45.3393C59.1689 45.704 59.3138 46.0537 59.5717 46.3116C59.8295 46.5694 60.1793 46.7143 60.5439 46.7143C60.9086 46.7143 61.2584 46.5694 61.5162 46.3116C61.7741 46.0537 61.9189 45.704 61.9189 45.3393V40.6423C61.9189 38.3433 60.6952 36.1818 58.7234 34.9965L52.7532 31.4133L50.5449 28.963C50.4102 28.8145 50.2232 28.7568 50.0472 28.6825V26.609C51.0668 25.7486 51.887 24.6768 52.4512 23.4678C53.0153 22.2588 53.3098 20.9416 53.3142 19.6075V16.4093L54.6864 10.065C54.806 9.41218 54.7936 8.742 54.65 8.094C54.5064 7.446 54.2346 6.83331 53.8504 6.29204C53.4711 5.74953 52.9867 5.28866 52.426 4.93674C51.8653 4.58483 51.2397 4.34902 50.5862 4.24329L42.0447 2.81604C41.3392 2.6962 40.616 2.73259 39.926 2.92265C39.2361 3.11271 38.5963 3.45181 38.0517 3.91604C37.2393 4.60447 36.6735 5.53905 36.4402 6.57804C35.3918 6.89348 34.5029 7.59666 33.9547 8.5444C33.4065 9.49214 33.2401 10.6132 33.4894 11.6793L34.7902 16.4313V19.6075C34.7953 20.9808 35.1074 22.3355 35.7036 23.5727C36.2998 24.8098 37.165 25.8979 38.2359 26.7575V28.5863C37.9811 28.6454 37.749 28.7772 37.5677 28.9658L35.3842 31.3885L29.3644 34.9993C28.3922 35.5872 27.5876 36.4153 27.028 37.4041C26.4683 38.3928 26.1725 39.5089 26.1689 40.645V45.342C26.1689 46.101 26.7822 46.7143 27.5439 46.7143ZM44.0549 30.965L40.9859 29.5048V28.3085C41.9512 28.6495 42.9714 28.8695 44.0494 28.8695C45.1962 28.8695 46.2797 28.633 47.2944 28.2508V29.4223L44.0549 30.965ZM50.0637 32.5408L48.2817 34.7683L46.4034 32.8928L49.1864 31.5673L50.0637 32.5408ZM36.1624 11.0303C36.1126 10.8035 36.1144 10.5684 36.1675 10.3424C36.2207 10.1164 36.324 9.90515 36.4697 9.72434C36.6153 9.54354 36.7998 9.39776 37.0093 9.29776C37.2189 9.19775 37.4482 9.14608 37.6804 9.14654C38.4394 9.14654 39.0554 8.43704 39.0554 7.67804C39.0564 7.36186 39.1261 7.04966 39.2595 6.76302C39.393 6.47639 39.5871 6.22217 39.8285 6.01793C40.0699 5.81369 40.3527 5.66431 40.6575 5.58011C40.9623 5.49592 41.2817 5.47892 41.5937 5.53029L50.1352 6.95754C50.4289 7.00475 50.71 7.11066 50.9619 7.26895C51.2137 7.42723 51.4311 7.63464 51.6009 7.87879C51.9529 8.37654 52.0877 8.97879 51.9887 9.53429L51.2049 13.1505L50.5587 12.3448C50.4298 12.1843 50.2666 12.0547 50.0809 11.9657C49.8953 11.8767 49.6921 11.8305 49.4862 11.8305H38.6154C38.4093 11.8302 38.2057 11.8766 38.0199 11.9661C37.8342 12.0557 37.6711 12.1861 37.5429 12.3475L36.7839 13.2935L36.1624 11.0303ZM37.5402 19.6075V16.742L39.2754 14.5833H48.8289L50.5642 16.7393V19.6075C50.5642 23.199 47.6409 26.1195 44.0522 26.1195C40.4634 26.1195 37.5402 23.199 37.5402 19.6075ZM38.9234 31.5673L41.7064 32.8928L39.8282 34.771L38.0462 32.5408L38.9234 31.5673Z" fill="white"/>
<path d="M58.971 72.2067C59.0639 72.0518 59.1253 71.8801 59.1517 71.7015C59.1782 71.5228 59.1692 71.3407 59.1253 71.1655C59.0814 70.9903 59.0034 70.8255 58.8958 70.6805C58.7881 70.5354 58.653 70.413 58.498 70.3202L45.4163 62.4717V50.875C45.4163 50.5103 45.2714 50.1606 45.0135 49.9027C44.7557 49.6449 44.4059 49.5 44.0413 49.5C43.6766 49.5 43.3269 49.6449 43.069 49.9027C42.8111 50.1606 42.6663 50.5103 42.6663 50.875V62.4717L29.5845 70.3202C29.4296 70.4131 29.2945 70.5355 29.1868 70.6805C29.0792 70.8256 29.0012 70.9904 28.9573 71.1655C28.9134 71.3407 28.9044 71.5228 28.9309 71.7015C28.9573 71.8801 29.0187 72.0518 29.1115 72.2067C29.2043 72.3617 29.3267 72.4968 29.4718 72.6044C29.6168 72.712 29.7816 72.79 29.9568 72.834C30.132 72.8779 30.3141 72.8869 30.4927 72.8604C30.6714 72.8339 30.8431 72.7726 30.998 72.6798L44.0413 64.8533L57.0845 72.6798C57.2393 72.773 57.411 72.8347 57.5898 72.8613C57.7685 72.888 57.9507 72.8791 58.126 72.8352C58.3013 72.7912 58.4662 72.7131 58.6112 72.6052C58.7562 72.4974 58.8785 72.362 58.971 72.2067Z" fill="white"/>
<path d="M26.403 74.8357L21.2247 72.8942V70.5567C21.9154 69.9076 22.4661 69.1241 22.843 68.2545C23.2199 67.3848 23.415 66.4473 23.4165 65.4995V62.9062L24.7172 58.1377C24.815 57.6051 24.8056 57.0584 24.6894 56.5295C24.5732 56.0006 24.3527 55.5003 24.0407 55.0577C23.7302 54.6122 23.3333 54.2337 22.8737 53.9446C22.414 53.6555 21.901 53.4617 21.365 53.3747L14.9685 52.3077C13.9887 52.146 12.9836 52.351 12.1455 52.8837C11.3074 53.4164 10.695 54.2394 10.4255 55.1952C9.81507 55.4181 9.27695 55.8031 8.86898 56.3089C8.18973 57.1532 7.92848 58.2394 8.23373 59.5402L9.44373 62.4387V65.4995C9.44373 67.518 10.3182 69.3247 11.6905 70.6034V72.8942L6.51498 74.8357C5.3997 75.2589 4.43893 76.0103 3.75944 76.9907C3.07996 77.9712 2.7137 79.1346 2.70898 80.3274V83.875C2.70898 84.2396 2.85385 84.5894 3.11171 84.8472C3.36958 85.1051 3.71931 85.25 4.08398 85.25C4.44866 85.25 4.79839 85.1051 5.05626 84.8472C5.31412 84.5894 5.45898 84.2396 5.45898 83.875V80.3274C5.45898 79.0349 6.27298 77.8635 7.48023 77.407L12.3917 75.5645C13.2277 76.9422 14.732 77.8772 16.459 77.8772C18.186 77.8772 19.6875 76.945 20.5235 75.5645L25.4377 77.407C26.645 77.8635 27.459 79.0349 27.459 80.3274V83.875C27.459 84.2396 27.6039 84.5894 27.8617 84.8472C28.1196 85.1051 28.4693 85.25 28.834 85.25C29.1987 85.25 29.5484 85.1051 29.8063 84.8472C30.0641 84.5894 30.209 84.2396 30.209 83.875V80.3274C30.2047 79.1345 29.8385 77.9709 29.159 76.9904C28.4795 76.0099 27.5185 75.2586 26.403 74.8357ZM11.2257 59.6309L10.8407 58.7262C10.8142 58.6066 10.8152 58.4825 10.8438 58.3634C10.8724 58.2443 10.9278 58.1332 11.0057 58.0387C11.0817 57.9434 11.1784 57.8666 11.2885 57.8142C11.3985 57.7618 11.5191 57.7351 11.641 57.7362C12.4 57.7362 13.016 57.0514 13.016 56.2924C13.0148 56.1059 13.0548 55.9214 13.1332 55.7521C13.2117 55.5829 13.3266 55.4331 13.4697 55.3135C13.6121 55.1917 13.7796 55.1029 13.9602 55.0535C14.1409 55.004 14.3302 54.9951 14.5147 55.0275L20.9112 56.0945C21.0867 56.123 21.2546 56.1866 21.4049 56.2816C21.5552 56.3766 21.6847 56.5009 21.7857 56.6472C21.9732 56.9035 22.0612 57.2192 22.0332 57.5355L21.4942 59.5072C21.3659 59.3665 21.2096 59.2543 21.0353 59.1775C20.861 59.1008 20.6726 59.0614 20.4822 59.0617H12.3422C12.1239 59.059 11.9083 59.1095 11.7138 59.2086C11.5193 59.3078 11.3518 59.4527 11.2257 59.6309ZM18.4747 73.1087C18.4555 73.6308 18.2345 74.1251 17.8583 74.4876C17.4821 74.8501 16.9801 75.0527 16.4576 75.0527C15.9352 75.0527 15.4331 74.8501 15.0569 74.4876C14.6807 74.1251 14.4598 73.6308 14.4405 73.1087V72.1655C15.0757 72.3552 15.7357 72.49 16.4315 72.49C17.1492 72.49 17.8257 72.3497 18.4775 72.149L18.4747 73.1087ZM20.6665 65.4995C20.6665 67.837 18.7662 69.7372 16.4287 69.7372C14.0912 69.7372 12.191 67.837 12.191 65.4995V63.4397C12.2047 63.4205 12.2267 63.4122 12.2405 63.3902L13.1452 61.8035H19.759L20.6665 63.1345V65.4995Z" fill="white"/>
<path d="M81.403 74.8357L76.904 73.15L76.2247 72.0967V70.5567C76.9154 69.9076 77.4661 69.1241 77.843 68.2545C78.2199 67.3848 78.415 66.4473 78.4165 65.4995V62.9062L79.7172 58.1377C79.815 57.6051 79.8056 57.0584 79.6894 56.5295C79.5732 56.0007 79.3527 55.5003 79.0407 55.0577C78.7302 54.6123 78.3333 54.2337 77.8737 53.9446C77.414 53.6555 76.901 53.4617 76.365 53.3747L69.9685 52.3077C69.3909 52.2119 68.7993 52.2426 68.2348 52.3979C67.6702 52.5532 67.1461 52.8292 66.6987 53.207C66.08 53.7295 65.6427 54.4142 65.4255 55.1952C64.8151 55.4181 64.2769 55.8031 63.869 56.309C63.1897 57.1532 62.9285 58.2395 63.2337 59.5402L64.4437 62.4387V65.4995C64.4437 67.518 65.3182 69.3247 66.6905 70.6035V72.0967L66.0112 73.1472L61.515 74.833C60.3997 75.2562 59.4389 76.0075 58.7594 76.988C58.08 77.9684 57.7137 79.1318 57.709 80.3247V83.8722C57.709 84.2369 57.8538 84.5866 58.1117 84.8445C58.3696 85.1023 58.7193 85.2472 59.084 85.2472C59.4487 85.2472 59.7984 85.1023 60.0563 84.8445C60.3141 84.5866 60.459 84.2369 60.459 83.8722V81.741L63.5087 77.0192L67.3945 75.5617C68.2305 76.9395 69.7347 77.8745 71.4617 77.8745C73.1887 77.8745 74.6902 76.9422 75.5262 75.5617L79.412 77.0165L82.4645 81.741V83.875C82.4645 84.2396 82.6093 84.5894 82.8672 84.8472C83.1251 85.1051 83.4748 85.25 83.8395 85.25C84.2042 85.25 84.5539 85.1051 84.8118 84.8472C85.0696 84.5894 85.2145 84.2396 85.2145 83.875V80.3275C85.2082 79.1342 84.8407 77.9708 84.1603 76.9905C83.4799 76.0103 82.5186 75.259 81.403 74.8357ZM66.2257 59.631L65.8407 58.7262C65.8142 58.6066 65.8152 58.4825 65.8438 58.3634C65.8724 58.2443 65.9278 58.1332 66.0057 58.0387C66.0817 57.9434 66.1784 57.8666 66.2885 57.8142C66.3985 57.7618 66.5191 57.7351 66.641 57.7362C67.4 57.7362 68.016 57.0515 68.016 56.2925C68.0147 56.1059 68.0548 55.9214 68.1332 55.7522C68.2117 55.5829 68.3266 55.4331 68.4697 55.3135C68.6121 55.1917 68.7796 55.1029 68.9602 55.0535C69.1409 55.004 69.3302 54.9952 69.5147 55.0275L75.9112 56.0945C76.0867 56.123 76.2546 56.1866 76.4049 56.2816C76.5552 56.3766 76.6847 56.5009 76.7857 56.6472C76.9732 56.9035 77.0612 57.2192 77.0332 57.5355L76.4942 59.5072C76.3659 59.3666 76.2096 59.2543 76.0353 59.1776C75.861 59.1008 75.6726 59.0614 75.4822 59.0617H67.3422C67.1239 59.059 66.9083 59.1095 66.7138 59.2086C66.5193 59.3078 66.3518 59.4527 66.2257 59.631ZM73.4747 73.1087C73.4555 73.6308 73.2345 74.1251 72.8583 74.4876C72.4821 74.8501 71.9801 75.0527 71.4576 75.0527C70.9352 75.0527 70.4331 74.8501 70.0569 74.4876C69.6807 74.1251 69.4598 73.6308 69.4405 73.1087V72.1655C70.0757 72.3552 70.7357 72.49 71.4315 72.49C72.1492 72.49 72.8257 72.3497 73.4775 72.149L73.4747 73.1087ZM75.6665 65.4995C75.6665 67.837 73.7662 69.7372 71.4287 69.7372C69.0912 69.7372 67.191 67.837 67.191 65.4995V63.4397C67.2047 63.4205 67.2267 63.4122 67.2405 63.3902L68.1452 61.8035H74.759L75.6665 63.1345V65.4995Z" fill="white"/>
</svg>
