<svg width="88" height="88" viewBox="0 0 88 88" fill="none" xmlns="http://www.w3.org/2000/svg">
<path d="M34.3711 23.4953C31.1798 23.6194 28.298 24.7579 26.7564 26.3C26.0404 27.0161 24.8796 27.0161 24.1637 26.3001C23.4476 25.5844 23.4474 24.4235 24.1633 23.7074C26.5419 21.3285 30.4128 19.9799 34.2285 19.8314C38.0691 19.682 42.2621 20.7336 45.1986 23.6706C45.9143 24.3865 45.9143 25.5474 45.1982 26.2633C44.4823 26.9792 43.3214 26.979 42.6055 26.2631C40.6054 24.2624 37.5373 23.3721 34.3711 23.4953Z" fill="white"/>
<path fill-rule="evenodd" clip-rule="evenodd" d="M50.2042 53.0484C46.0546 56.5537 40.6907 58.6667 34.8333 58.6667C21.6706 58.6667 11 47.9961 11 34.8333C11 21.6706 21.6706 11 34.8333 11C47.9961 11 58.6667 21.6706 58.6667 34.8333C58.6667 40.6907 56.5537 46.0546 53.0484 50.2042L57.0977 49.5L75.951 68.3535C77.3496 69.7521 77.3496 72.0197 75.951 73.4184L73.4184 75.951C72.0197 77.3496 69.7521 77.3496 68.3535 75.951L49.5 57.0977L50.2042 53.0484ZM55 34.8333C55 45.971 45.971 55 34.8333 55C23.6957 55 14.6667 45.971 14.6667 34.8333C14.6667 23.6957 23.6957 14.6667 34.8333 14.6667C45.971 14.6667 55 23.6957 55 34.8333ZM68.2893 65.8772L55.8507 53.4386L53.7959 53.7959L53.4386 55.8507L65.9138 68.326L68.2893 65.8772ZM68.5069 70.919L70.8858 73.2981L73.2981 70.8858L70.8824 68.4702L68.5069 70.919Z" fill="white"/>
</svg>
