<svg width="88" height="88" viewBox="0 0 88 88" fill="none" xmlns="http://www.w3.org/2000/svg">
<path d="M79.9306 44L82.0602 41.8704C83.1514 40.7792 83.6706 39.2216 83.4506 37.6992L82.8698 33.6424C82.5442 31.3544 83.3274 29.0136 84.9554 27.3856C86.073 26.268 86.073 24.4464 84.9554 23.3288L64.6802 3.03595C63.5626 1.91835 61.741 1.91835 60.6234 3.03595C58.9866 4.67275 56.6458 5.44715 54.3666 5.12155L50.3098 4.54075C48.7786 4.32075 47.2298 4.83995 46.1386 5.93115L44.009 8.06075L41.8794 5.93115C40.7882 4.83995 39.2306 4.32075 37.7082 4.54075L33.6514 5.12155C31.3634 5.44715 29.0226 4.66395 27.3946 3.03595C26.277 1.91835 24.4554 1.91835 23.3378 3.03595L3.045 23.32C1.9274 24.4376 1.9274 26.2592 3.045 27.3768C4.6818 29.0136 5.4562 31.3456 5.1306 33.6336L4.5498 37.6904C4.3298 39.2128 4.849 40.7704 5.9402 41.8616L8.0698 43.9912L4.233 47.8279C2.9218 49.1392 2.2002 50.8815 2.2002 52.7295C2.2002 54.5775 2.9218 56.32 4.277 57.6752C6.1426 59.5408 8.8266 60.1216 11.1938 59.4088C10.481 61.7848 11.0706 64.4688 12.9714 66.3696C14.837 68.2352 17.521 68.816 19.8882 68.1032C19.1754 70.4792 19.765 73.1632 21.6658 75.064C22.977 76.3752 24.7194 77.0968 26.5674 77.0968C27.2626 77.0968 27.9402 77 28.5826 76.7976C27.8698 79.1647 28.4594 81.8576 30.3602 83.7584C31.6714 85.0696 33.4138 85.7912 35.2618 85.7912C37.1098 85.7912 38.8522 85.0696 40.1634 83.7584L44.0002 79.9216L47.8106 83.732C49.1658 85.0872 50.9522 85.7648 52.7386 85.7648C54.525 85.7648 56.3026 85.0872 57.6666 83.732C59.541 81.8576 60.1218 79.1648 59.4002 76.78C60.0514 76.9736 60.729 77.0792 61.433 77.0792C63.2898 77.0792 65.041 76.3576 66.361 75.0376C68.2354 73.1632 68.8162 70.4704 68.0946 68.0856C68.7458 68.2792 69.4234 68.3848 70.1274 68.3848C71.9842 68.3848 73.7354 67.6632 75.0554 66.3432C76.9386 64.46 77.5106 61.7672 76.789 59.3824C77.449 59.5848 78.1354 59.6816 78.8218 59.6816C80.6082 59.6816 82.3858 59.004 83.7498 57.6488C85.0698 56.3288 85.7914 54.5864 85.7914 52.7208C85.7914 50.8552 85.0698 49.1128 83.7498 47.7928L79.9394 43.9824L79.9306 44ZM43.3314 63.2016C43.3314 63.2016 43.2962 63.2016 43.2786 63.2016C43.2962 63.2016 43.3138 63.2016 43.3314 63.2016ZM39.9786 64.4776C39.917 64.5216 39.8466 64.5744 39.785 64.6184C39.8466 64.5656 39.917 64.5216 39.9786 64.4776ZM44.3522 63.1752C44.2994 63.1752 44.2466 63.1752 44.185 63.1752C44.2378 63.1752 44.2906 63.1752 44.3522 63.1752ZM45.8394 62.348C45.8482 62.4272 45.857 62.4976 45.8746 62.5768C45.8658 62.4976 45.8482 62.4272 45.8394 62.348ZM45.2234 63.272C45.1706 63.2632 45.1178 63.2544 45.065 63.2456C45.1178 63.2456 45.1706 63.2632 45.2234 63.272ZM52.0258 54.5072C52.0258 54.5072 51.9994 54.5072 51.9906 54.5072C51.9994 54.5072 52.017 54.5072 52.0258 54.5072ZM51.2074 54.6479C51.137 54.6656 51.0666 54.6832 51.005 54.7008C51.0754 54.6832 51.1458 54.6656 51.2074 54.6479ZM50.3186 54.912C50.2746 54.9296 50.2306 54.9384 50.1778 54.956C50.2218 54.9384 50.2658 54.9208 50.3186 54.912ZM49.4122 55.3168C49.3506 55.352 49.2978 55.3872 49.245 55.4136C49.3066 55.3784 49.3594 55.3432 49.4122 55.3168ZM48.673 55.7832C48.6114 55.8272 48.541 55.88 48.4794 55.924C48.541 55.8712 48.6114 55.8272 48.673 55.7832ZM53.9178 54.5776C53.865 54.5776 53.821 54.56 53.7682 54.56C53.821 54.56 53.865 54.5688 53.9178 54.5776ZM54.5514 53.768C54.5514 53.8208 54.5602 53.8648 54.569 53.9176C54.569 53.8648 54.5514 53.8208 54.5514 53.768ZM55.933 48.4792C55.8802 48.5408 55.8362 48.6112 55.7922 48.6728C55.8362 48.6024 55.889 48.5408 55.933 48.4792ZM55.4138 49.2448C55.3786 49.3064 55.3434 49.3592 55.317 49.412C55.3522 49.3504 55.3874 49.2976 55.4138 49.2448ZM54.9562 50.1776C54.9386 50.2216 54.921 50.2656 54.9122 50.3184C54.9298 50.2744 54.9386 50.2216 54.9562 50.1776ZM54.701 50.996C54.6834 51.0664 54.6658 51.1368 54.6482 51.1984C54.6658 51.128 54.6834 51.0576 54.701 50.996ZM54.5162 51.9904C54.5162 51.9904 54.5162 52.0168 54.5162 52.0256C54.5162 52.0168 54.5162 51.9992 54.5162 51.9904ZM57.3674 47.0888C57.3058 47.1328 57.2354 47.1856 57.1738 47.2295C57.2354 47.1768 57.3058 47.1328 57.3674 47.0888ZM60.7202 45.8128C60.7202 45.8128 60.685 45.8128 60.6586 45.8128C60.6762 45.8128 60.6938 45.8128 60.7202 45.8128ZM59.013 46.2176C58.969 46.2352 58.925 46.244 58.8722 46.2616C58.9162 46.244 58.9602 46.2264 59.013 46.2176ZM63.2634 45.188C63.2546 45.1087 63.237 45.0384 63.2282 44.9592C63.237 45.0384 63.2458 45.1087 63.2634 45.188ZM62.6122 45.8832C62.5594 45.8744 62.5066 45.8656 62.445 45.8568C62.4978 45.8568 62.5506 45.8744 62.6122 45.8832ZM6.169 37.928L6.7498 33.8712C7.1458 31.0728 6.1954 28.2128 4.1978 26.224C3.7226 25.7488 3.7226 24.9656 4.1978 24.4816L24.4818 4.19755C24.7194 3.95995 25.0362 3.83675 25.353 3.83675C25.6698 3.83675 25.9866 3.95995 26.2242 4.19755C28.2218 6.19515 31.0818 7.14555 33.8714 6.74955L37.9282 6.16875C38.9402 6.02795 39.9874 6.37115 40.709 7.09275L60.993 27.3768C61.9962 28.38 62.5506 29.7176 62.5506 31.1432C62.5506 32.5688 61.9962 33.9064 60.993 34.9095C59.9898 35.9128 58.6522 36.4672 57.2266 36.4672C55.801 36.4672 54.4634 35.9128 53.4602 34.9095L35.8866 17.336C35.5698 17.0192 35.0506 17.0192 34.725 17.336L9.22259 42.8384L7.093 40.7088C6.3714 39.9872 6.0194 38.94 6.169 37.928ZM56.505 82.588C54.4282 84.6648 51.049 84.6648 48.9722 82.588L40.2778 73.8936C39.2746 72.8904 38.7202 71.5528 38.7202 70.1272C38.7202 68.7016 39.2746 67.364 40.2778 66.3608C42.3546 64.284 45.7338 64.284 47.8106 66.3608L56.505 75.0552C58.5818 77.132 58.5818 80.5112 56.505 82.588ZM65.1994 73.8936C64.1962 74.8968 62.8586 75.4512 61.433 75.4512C60.0074 75.4512 58.6698 74.8968 57.6666 73.8936L48.9722 65.1992C47.969 64.196 47.4146 62.8584 47.4146 61.4328C47.4146 60.0072 47.969 58.6696 48.9722 57.6664C50.0106 56.628 51.3746 56.1087 52.7386 56.1087C54.1026 56.1087 55.4666 56.628 56.505 57.6664L65.1994 66.3608C67.2762 68.4376 67.2762 71.8168 65.1994 73.8936ZM73.8938 65.1992C72.8906 66.2024 71.553 66.7568 70.1274 66.7568C68.7018 66.7568 67.3642 66.2024 66.361 65.1992L57.6666 56.5048C55.5898 54.428 55.5898 51.0488 57.6666 48.972C59.7434 46.8952 63.1226 46.8952 65.1994 48.972L73.8938 57.6664C75.9706 59.7432 75.9706 63.1224 73.8938 65.1992ZM82.5882 56.5048C80.5114 58.5816 77.1322 58.5816 75.0554 56.5048L66.361 47.8104C65.3578 46.8072 64.8034 45.4696 64.8034 44.044C64.8034 42.6184 65.3578 41.2808 66.361 40.2776C67.3642 39.2744 68.7018 38.72 70.1274 38.72C71.553 38.72 72.8906 39.2744 73.8938 40.2776L82.5882 48.972C83.5914 49.9752 84.1458 51.3128 84.1458 52.7384C84.1458 54.164 83.5914 55.5016 82.5882 56.5048Z" fill="white"/>
</svg>
