<svg width="123" height="123" viewBox="0 0 123 123" fill="none" xmlns="http://www.w3.org/2000/svg">
<path d="M121.078 90.3281C121.078 82.9116 115.042 76.875 107.625 76.875H106.966C107.393 75.6719 107.625 74.3785 107.625 73.0312C107.625 66.6718 102.453 61.5 96.0939 61.5H67.2658C66.6104 61.5 65.9704 61.5673 65.3439 61.673V55.7344H73.0314C82.5697 55.7344 90.3283 47.9758 90.3283 38.4375V34.5938C90.3283 27.9517 86.5095 21.9862 80.7189 19.1111V15.375C80.7189 7.95848 74.6823 1.92188 67.2658 1.92188H36.5158C29.0993 1.92188 23.0627 7.95848 23.0627 15.375V19.1111C17.2721 21.9862 13.4533 27.9517 13.4533 34.5938V36.6694C6.94582 37.6073 1.92203 43.2057 1.92203 49.9688V57.6562C1.92203 65.0728 7.95864 71.1094 15.3752 71.1094H17.297V74.9531C17.297 82.3696 23.3336 88.4062 30.7502 88.4062H38.4377V100.405C38.1859 100.462 37.9284 100.491 37.6785 100.56C33.8751 101.611 30.1659 99.8203 28.2882 98.6614C24.7943 96.505 20.6027 95.6729 16.4745 96.3071C8.14122 97.5986 1.88552 104.977 1.92203 113.469C1.92972 115.145 2.17188 116.787 2.64466 118.347C3.13474 119.969 4.62803 121.078 6.32313 121.078H55.7345H61.5002C63.6219 121.078 65.3439 119.356 65.3439 117.234V103.627C65.9743 103.718 66.6124 103.781 67.2658 103.781H73.0314V117.234C73.0314 119.356 74.7534 121.078 76.8752 121.078H92.2502C94.3719 121.078 96.0939 119.356 96.0939 117.234H99.9377C106.297 117.234 111.469 112.063 111.469 105.703V103.214C117.019 101.556 121.078 96.4089 121.078 90.3281ZM57.6564 66.6698C56.4437 68.4956 55.7345 70.6808 55.7345 73.0312C55.7345 75.7815 56.7012 78.3087 58.3156 80.2921C55.5539 82.7598 53.8127 86.3441 53.8127 90.3281C53.8127 93.9835 55.2829 97.2968 57.6564 99.7242V109.345C55.3502 104.869 51.1547 101.529 46.1252 100.381V57.6562V55.7344H57.6564V66.6698ZM28.244 25.3284C28.5419 25.2477 28.8168 25.1266 29.0762 24.9844H34.5939C36.7157 24.9844 38.4377 23.2624 38.4377 21.1406C38.4377 19.0189 36.7157 17.2969 34.5939 17.2969H30.7502V15.375C30.7502 12.1962 33.337 9.60938 36.5158 9.60938H67.2658C70.4446 9.60938 73.0314 12.1962 73.0314 15.375V17.2969H69.1877C67.0659 17.2969 65.3439 19.0189 65.3439 21.1406C65.3439 23.2624 67.0659 24.9844 69.1877 24.9844H74.7054C74.9648 25.1266 75.2397 25.2477 75.5375 25.3284C79.7176 26.4585 82.6408 30.2676 82.6408 34.5938V38.4375C82.6408 43.7361 78.33 48.0469 73.0314 48.0469H45.9714C45.0335 41.5394 39.4351 36.5156 32.672 36.5156H21.1408V34.5938C21.1408 30.2676 24.064 26.4585 28.244 25.3284ZM9.60953 57.6562V49.9688C9.60953 46.79 12.1964 44.2031 15.3752 44.2031H32.672C35.8508 44.2031 38.4377 46.79 38.4377 49.9688V57.6562C38.4377 60.835 35.8508 63.4219 32.672 63.4219H15.3752C12.1964 63.4219 9.60953 60.835 9.60953 57.6562ZM30.7502 80.7188C27.5714 80.7188 24.9845 78.1319 24.9845 74.9531V71.1094H32.672C34.7361 71.1094 36.6868 70.627 38.4377 69.7929V80.7188H30.7502ZM9.60953 113.391C9.61338 108.767 13.1381 104.604 17.6526 103.902C20.0107 103.539 22.2862 103.989 24.2542 105.202C29.3395 108.338 34.8341 109.316 39.7234 107.969C40.5536 107.742 41.4146 107.625 42.2814 107.625C46.2136 107.625 49.6038 109.999 51.0874 113.391H9.60953ZM80.7189 113.391V103.781H88.4064V113.391H80.7189ZM99.9377 109.547H96.0939V103.781H103.781V105.703C103.781 107.823 102.057 109.547 99.9377 109.547ZM107.625 96.0938H92.2502H76.8752H67.2658C64.087 96.0938 61.5002 93.5069 61.5002 90.3281C61.5002 87.1493 64.087 84.5625 67.2658 84.5625C69.3875 84.5625 71.1095 82.8405 71.1095 80.7188C71.1095 78.597 69.3875 76.875 67.2658 76.875C65.146 76.875 63.422 75.1511 63.422 73.0312C63.422 70.9114 65.146 69.1875 67.2658 69.1875H96.0939C98.2137 69.1875 99.9377 70.9114 99.9377 73.0312C99.9377 75.1511 98.2137 76.875 96.0939 76.875C93.9722 76.875 92.2502 78.597 92.2502 80.7188C92.2502 82.8405 93.9722 84.5625 96.0939 84.5625H107.625C110.804 84.5625 113.391 87.1493 113.391 90.3281C113.391 93.5069 110.804 96.0938 107.625 96.0938Z" fill="white"/>
</svg>
