<svg width="88" height="88" viewBox="0 0 88 88" fill="none" xmlns="http://www.w3.org/2000/svg">
<g clip-path="url(#clip0_73_6)">
<path d="M87.978 61.7705C87.9704 61.6772 87.9529 61.585 87.9258 61.4954C87.9029 61.4004 87.8697 61.3082 87.8268 61.2204C87.8102 61.1902 87.8102 61.1545 87.791 61.127L74.25 39.4817V24.75H81.125C81.4897 24.75 81.8394 24.6051 82.0973 24.3472C82.3551 24.0894 82.5 23.7396 82.5 23.375V22.9515C82.4912 21.2259 81.8373 19.566 80.667 18.2979C79.4966 17.0299 77.8943 16.2453 76.175 16.0984L48.125 13.8545V9.0997C48.8251 8.30585 49.2813 7.32685 49.4388 6.28018C49.5963 5.2335 49.4484 4.16361 49.0129 3.19888C48.5774 2.23416 47.8728 1.41559 46.9836 0.841403C46.0944 0.267212 45.0585 -0.038208 44 -0.038208C42.9415 -0.038208 41.9056 0.267212 41.0164 0.841403C40.1272 1.41559 39.4226 2.23416 38.9871 3.19888C38.5516 4.16361 38.4037 5.2335 38.5612 6.28018C38.7187 7.32685 39.1749 8.30585 39.875 9.0997V13.7362L11.8003 16.0847C10.0858 16.2374 8.48998 17.024 7.32481 18.2909C6.15965 19.5578 5.50896 21.2138 5.5 22.935V23.375C5.5 23.7396 5.64487 24.0894 5.90273 24.3472C6.16059 24.6051 6.51033 24.75 6.875 24.75H13.75V39.4817L0.209 61.1462C0.18975 61.1765 0.18975 61.2094 0.17325 61.2397C0.130296 61.3275 0.0970974 61.4197 0.07425 61.5147C0.0470746 61.6042 0.0295583 61.6964 0.022 61.7897C0.022 61.8255 0 61.8585 0 61.8942C0 65.9056 1.59352 69.7527 4.43001 72.5892C7.2665 75.4257 11.1136 77.0192 15.125 77.0192C19.1364 77.0192 22.9835 75.4257 25.82 72.5892C28.6565 69.7527 30.25 65.9056 30.25 61.8942C30.25 61.8557 30.2307 61.8255 30.228 61.7897C30.2204 61.6964 30.2029 61.6042 30.1757 61.5147C30.1529 61.4197 30.1197 61.3275 30.0768 61.2397C30.0603 61.2094 30.0602 61.1737 30.041 61.1462L16.5 39.4817V24.75H39.875V53.3224C39.444 53.7059 39.0987 54.176 38.8618 54.702C38.6248 55.228 38.5015 55.798 38.5 56.375V77.2475L31.2455 78.6967C29.4153 79.0679 27.7694 80.0596 26.5859 81.5041C25.4024 82.9487 24.7539 84.7575 24.75 86.625C24.75 86.9896 24.8949 87.3394 25.1527 87.5972C25.4106 87.8551 25.7603 87.9999 26.125 87.9999H61.875C62.2397 87.9999 62.5894 87.8551 62.8473 87.5972C63.1051 87.3394 63.25 86.9896 63.25 86.625C63.246 84.7571 62.5971 82.948 61.413 81.5034C60.229 80.0588 58.5824 79.0674 56.7517 78.6967L49.5 77.2749V56.375C49.4985 55.798 49.3752 55.228 49.1382 54.702C48.9013 54.176 48.556 53.7059 48.125 53.3224V24.75H71.5V39.4817L57.959 61.149C57.9398 61.1792 57.9398 61.2122 57.9232 61.2425C57.8803 61.3302 57.8471 61.4224 57.8242 61.5175C57.7971 61.607 57.7796 61.6992 57.772 61.7924C57.772 61.8282 57.75 61.8612 57.75 61.8969C57.75 65.9083 59.3435 69.7555 62.18 72.5919C65.0165 75.4284 68.8636 77.0219 72.875 77.0219C76.8864 77.0219 80.7335 75.4284 83.57 72.5919C86.4065 69.7555 88 65.9083 88 61.8969C88 61.8364 87.9808 61.8062 87.978 61.7705ZM44 2.74995C44.5439 2.74995 45.0756 2.91123 45.5278 3.21341C45.9801 3.51558 46.3325 3.94507 46.5407 4.44757C46.7488 4.95007 46.8033 5.503 46.6972 6.03645C46.591 6.5699 46.3291 7.0599 45.9445 7.44449C45.56 7.82909 45.07 8.091 44.5365 8.19711C44.0031 8.30322 43.4501 8.24876 42.9476 8.04062C42.4451 7.83248 42.0156 7.48 41.7135 7.02777C41.4113 6.57553 41.25 6.04385 41.25 5.49995C41.25 4.77061 41.5397 4.07113 42.0555 3.55541C42.5712 3.03968 43.2707 2.74995 44 2.74995ZM45.375 10.8047V52.25H42.625V10.8047C43.5232 11.0652 44.4768 11.0652 45.375 10.8047ZM41.25 56.375C41.25 56.0103 41.3949 55.6605 41.6527 55.4027C41.9106 55.1448 42.2603 55 42.625 55H45.375C45.7397 55 46.0894 55.1448 46.3473 55.4027C46.6051 55.6605 46.75 56.0103 46.75 56.375V77H41.25V56.375ZM15.125 74.25C12.0818 74.2463 9.14633 73.1232 6.87788 71.0946C4.60943 69.0661 3.16658 66.2738 2.82425 63.25H27.4257C27.0834 66.2738 25.6406 69.0661 23.3721 71.0946C21.1037 73.1232 18.1682 74.2463 15.125 74.25ZM26.4 60.5H3.85L15.125 42.4682L26.4 60.5ZM8.35725 22C8.55955 21.1523 9.02307 20.3896 9.68232 19.8197C10.3416 19.2497 11.1632 18.9013 12.0312 18.8237L39.875 16.5V22H8.35725ZM56.2072 81.3999C57.1828 81.5965 58.0844 82.0608 58.811 82.7407C59.5376 83.4207 60.0605 84.2896 60.3212 85.25H27.6787C27.9391 84.2908 28.4609 83.4228 29.1859 82.743C29.9109 82.0631 30.8106 81.5982 31.7845 81.3999L39.875 79.75H47.9902L56.2072 81.3999ZM48.125 22V16.6154L75.9522 18.843C76.8199 18.9164 77.6426 19.2607 78.3039 19.8272C78.9651 20.3937 79.4316 21.1538 79.6373 22H48.125ZM72.875 42.4682L84.15 60.5H61.6L72.875 42.4682ZM72.875 74.25C69.8318 74.2463 66.8963 73.1232 64.6279 71.0946C62.3594 69.0661 60.9166 66.2738 60.5742 63.25H85.173C84.8307 66.2733 83.3883 69.0652 81.1204 71.0937C78.8525 73.1222 75.9177 74.2456 72.875 74.25Z" fill="white"/>
</g>
<defs>
<clipPath id="clip0_73_6">
<rect width="88" height="88" fill="white"/>
</clipPath>
</defs>
</svg>
