<svg width="88" height="88" viewBox="0 0 88 88" fill="none" xmlns="http://www.w3.org/2000/svg">
<g clip-path="url(#clip0_78_21)">
<path fill-rule="evenodd" clip-rule="evenodd" d="M86.1114 49.925C86.2218 49.5249 86.2811 49.1042 86.2811 48.6702V39.3296C86.2811 36.7182 84.1445 34.5816 81.533 34.5816H58.807C60.5416 37.3029 61.5471 40.5341 61.5471 44.0002C61.5471 46.0795 61.1851 48.0743 60.521 49.9252H86.1114V49.925ZM1.88839 49.9252H27.4789C26.8147 48.0743 26.4528 46.0795 26.4528 44C26.4528 40.534 27.4582 37.3027 29.1926 34.5816H6.4668C3.85533 34.5816 1.71875 36.7183 1.71875 39.3298V48.6705C1.71875 49.1045 1.77805 49.5251 1.88839 49.9252ZM38.0749 86.1116C38.4751 86.222 38.8958 86.2812 39.3298 86.2812H48.6705C51.282 86.2812 53.4186 84.1447 53.4186 81.5332V58.8072C50.6973 60.5418 47.466 61.5472 44 61.5472C41.9207 61.5472 39.9259 61.1853 38.0749 60.5211V86.1116ZM38.0746 1.88856V27.479C39.9255 26.8149 41.9203 26.4529 43.9998 26.4529C47.466 26.4529 50.6971 27.4584 53.4182 29.1928V6.4668C53.4182 3.85533 51.2815 1.71875 48.67 1.71875H39.3293C38.8953 1.71875 38.4747 1.77822 38.0746 1.88856Z" fill="#EDEBF2"/>
<path fill-rule="evenodd" clip-rule="evenodd" d="M85.25 48.6702C85.25 50.7196 83.5828 52.3872 81.5323 52.3872H60.5739C61.8561 49.8663 62.578 47.0162 62.578 44.0002C62.578 40.9841 61.8544 38.1339 60.5739 35.6129H81.5323C83.5828 35.6127 85.25 37.2802 85.25 39.3296V48.6702ZM64.9963 80.0699H56.4001C67.5022 76.2594 76.2592 67.5024 80.0697 56.4001V64.9963C80.0697 73.3081 73.3081 80.0697 64.9964 80.0697L64.9963 80.0699ZM48.6705 85.2502H39.3298C37.2802 85.2502 35.6128 83.583 35.6128 81.5325V60.5741C38.1337 61.8563 40.9838 62.5781 43.9998 62.5781C47.0159 62.5781 49.8661 61.8546 52.3872 60.5741V81.5325C52.3872 83.5828 50.7198 85.2502 48.6704 85.2502H48.6705ZM7.9298 64.9963V56.3999C11.7411 67.5022 20.498 76.2594 31.5999 80.0699H23.0041C14.692 80.0697 7.92963 73.3083 7.9298 64.9964V64.9963ZM2.75 48.6705V39.3296C2.75 37.2802 4.41719 35.613 6.4668 35.613H27.4256C26.1448 38.1337 25.4217 40.9839 25.4217 44C25.4217 47.0159 26.1448 49.8663 27.4257 52.3873H6.4668C4.41736 52.3873 2.75 50.72 2.75 48.6705ZM23.0043 7.92981H31.6001C20.498 11.741 11.741 20.4982 7.9298 31.6001V23.0041C7.9298 14.6919 14.6922 7.92981 23.0043 7.92981ZM39.3295 2.74984H48.6702C50.7196 2.74984 52.387 4.41754 52.387 6.46698V27.4256C49.8661 26.1448 47.0161 25.4219 44 25.4219C40.9839 25.4219 38.1337 26.1449 35.6127 27.4259V6.46664C35.6127 4.41737 37.28 2.75018 39.3295 2.74984ZM80.0697 23.0043V31.6001C76.2592 20.498 67.502 11.7411 56.3999 7.92998H64.9963C73.3081 7.92964 80.0695 14.6924 80.0697 23.0043ZM54.4495 28.6471C56.3736 29.9609 58.0389 31.6264 59.3519 33.5504H78.5314C75.0475 22.0138 65.9863 12.952 54.4495 9.46843V28.6471ZM28.6471 33.5507C29.9607 31.6266 31.6262 29.9611 33.5502 28.6473V9.46826C22.0136 12.952 12.9518 22.0138 9.46825 33.5505L28.6471 33.5507ZM33.5505 59.3538C31.6264 58.0394 29.9609 56.374 28.6473 54.45H9.46825C12.952 65.9864 22.0139 75.0477 33.5505 78.5316V59.3538ZM44 60.5156C53.1068 60.5156 60.5155 53.107 60.5155 44.0002C60.5155 34.8934 53.1068 27.4842 44 27.4844C34.8932 27.4844 27.4842 34.8934 27.4842 44.0002C27.4842 53.107 34.8932 60.5156 44 60.5156ZM59.3536 54.4497C58.0393 56.3738 56.3738 58.0391 54.4498 59.3521V78.5316C65.9863 75.0477 75.0475 65.9864 78.5314 54.4497H59.3536ZM82.1322 33.5815V23.0043C82.1322 13.5548 74.4442 5.86748 64.9963 5.86748H54.4184C54.1176 2.96107 51.6545 0.687683 48.6702 0.687683H39.3295C36.3452 0.687683 33.8822 2.96142 33.5813 5.86748H23.0043C13.5551 5.86731 5.8673 13.5551 5.8673 23.0044V33.5816C2.96123 33.8826 0.6875 36.3457 0.6875 39.33V48.6705C0.6875 51.6548 2.96123 54.1178 5.8673 54.4187V64.9963C5.8673 74.4442 13.5549 82.1322 23.0043 82.1322H33.5818C33.8826 85.0384 36.3455 87.3125 39.3298 87.3125H48.6705C51.6548 87.3125 54.1178 85.0386 54.4187 82.1322H64.9963C74.4442 82.1322 82.1322 74.4442 82.1322 64.9963V54.4182C85.0386 54.1176 87.3125 51.6545 87.3125 48.6702V39.3295C87.3125 36.3452 85.0386 33.8824 82.1322 33.5815Z" fill="white"/>
</g>
<defs>
<clipPath id="clip0_78_21">
<rect width="88" height="88" fill="white"/>
</clipPath>
</defs>
</svg>
