<svg width="88" height="88" viewBox="0 0 88 88" fill="none" xmlns="http://www.w3.org/2000/svg">
<path d="M77.8565 38.4024C77.6134 37.5539 77.072 36.8218 76.332 36.3408C75.5919 35.8598 74.7031 35.6623 73.829 35.7846C72.9549 35.907 72.1544 36.3409 71.5748 37.0066C70.9953 37.6723 70.6757 38.5249 70.6749 39.4075V52.2377L69.0826 53.7996L67.9922 52.7244C67.1495 51.9098 66.0232 51.4544 64.8511 51.4544C63.6789 51.4544 62.5526 51.9098 61.7099 52.7244L54.784 59.5128C54.2413 60.056 53.8428 60.7262 53.6249 61.4625L49.9124 74.25H48.6749C48.3102 74.25 47.9605 74.3949 47.7026 74.6527C47.4447 74.9106 47.2999 75.2604 47.2999 75.625V83.875C47.2999 84.2397 47.4447 84.5894 47.7026 84.8473C47.9605 85.1052 48.3102 85.25 48.6749 85.25H67.3749C67.7395 85.25 68.0893 85.1052 68.3471 84.8473C68.605 84.5894 68.7499 84.2397 68.7499 83.875V75.625C68.7499 75.2604 68.605 74.9106 68.3471 74.6527C68.0893 74.3949 67.7395 74.25 67.3749 74.25H67.1961V70.6338L80.8499 57.2468L80.8595 57.2371C81.4325 56.6669 81.8423 55.9536 82.0461 55.1713C82.25 54.389 82.2405 53.5664 82.0186 52.789L77.8565 38.4024ZM65.9999 82.5H50.0499V77H65.9999V82.5ZM78.9249 55.2874L64.8586 69.0745C64.728 69.2025 64.6243 69.3553 64.5535 69.5238C64.4826 69.6924 64.4461 69.8734 64.4461 70.0563V74.25H52.7737L56.2621 62.2394C56.3487 61.9491 56.5055 61.6847 56.7186 61.4694L63.6335 54.6907C63.9599 54.3754 64.3959 54.1991 64.8497 54.1991C65.3035 54.1991 65.7395 54.3754 66.0659 54.6907L67.104 55.715L62.506 60.3075C62.2482 60.5655 62.1034 60.9154 62.1035 61.2801C62.1037 61.6449 62.2487 61.9946 62.5067 62.2525C62.7647 62.5103 63.1145 62.6551 63.4793 62.6549C63.844 62.6548 64.1938 62.5098 64.4516 62.2518L69.8952 56.8068C69.9469 56.7781 69.9965 56.7459 70.0437 56.7105L73.0137 53.7955C73.1443 53.6675 73.2481 53.5148 73.3189 53.3462C73.3897 53.1776 73.4262 52.9966 73.4262 52.8138V39.4075C73.4295 39.1678 73.5261 38.9389 73.6956 38.7694C73.8651 38.5999 74.0941 38.5032 74.3337 38.5C74.5324 38.497 74.7265 38.5598 74.8857 38.6787C75.045 38.7976 75.1603 38.9659 75.2137 39.1573L79.3786 53.5508C79.4641 53.8545 79.4672 54.1754 79.3874 54.4807C79.3077 54.7859 79.148 55.0644 78.9249 55.2874ZM13.6674 35.75C12.8733 35.7495 12.1006 36.007 11.4655 36.4836C10.8305 36.9602 10.3674 37.6302 10.146 38.3928L5.97974 52.7918C5.75852 53.5711 5.7504 54.3956 5.9562 55.1791C6.16201 55.9627 6.57422 56.6767 7.14987 57.2468L20.8036 70.6338V74.25H20.6249C20.2602 74.25 19.9105 74.3949 19.6526 74.6527C19.3947 74.9106 19.2499 75.2604 19.2499 75.625V83.875C19.2499 84.2397 19.3947 84.5894 19.6526 84.8473C19.9105 85.1052 20.2602 85.25 20.6249 85.25H39.3249C39.6895 85.25 40.0393 85.1052 40.2971 84.8473C40.555 84.5894 40.6999 84.2397 40.6999 83.875V75.625C40.6999 75.2604 40.555 74.9106 40.2971 74.6527C40.0393 74.3949 39.6895 74.25 39.3249 74.25H38.0874L34.3749 61.4625C34.154 60.7252 33.7528 60.0546 33.2075 59.5114L26.2899 52.7313C25.4468 51.9161 24.32 51.4605 23.1473 51.4605C21.9746 51.4605 20.8478 51.9161 20.0047 52.7313L18.9185 53.8024L17.3249 52.2377V39.4075C17.3238 38.4378 16.9381 37.5082 16.2524 36.8225C15.5667 36.1368 14.6371 35.7511 13.6674 35.75ZM17.956 56.7105C18.0033 56.7459 18.0529 56.7781 18.1045 56.8068L23.5481 62.2518C23.8059 62.5098 24.1557 62.6548 24.5204 62.6549C24.8852 62.6551 25.235 62.5103 25.4931 62.2525C25.7511 61.9946 25.8961 61.6449 25.8962 61.2801C25.8963 60.9154 25.7516 60.5655 25.4937 60.3075L20.8999 55.7109L21.9339 54.6907C22.2607 54.3752 22.6972 54.1989 23.1514 54.1989C23.6057 54.1989 24.0422 54.3752 24.369 54.6907L31.2715 61.4625C31.487 61.6782 31.6462 61.9436 31.7349 62.2353L35.2246 74.25H35.1462C34.7816 74.25 34.4318 74.3949 34.174 74.6527C33.9161 74.9106 33.7712 75.2604 33.7712 75.625C33.7712 75.9897 33.9161 76.3394 34.174 76.5973C34.4318 76.8552 34.7816 77 35.1462 77H37.9499V82.5H21.9999V77H24.7499C25.1145 77 25.4643 76.8552 25.7221 76.5973C25.98 76.3394 26.1249 75.9897 26.1249 75.625C26.1249 75.2604 25.98 74.9106 25.7221 74.6527C25.4643 74.3949 25.1145 74.25 24.7499 74.25H23.5536V70.0563C23.5536 69.8734 23.5171 69.6924 23.4463 69.5238C23.3754 69.3553 23.2717 69.2025 23.1411 69.0745L9.08449 55.2929C8.85908 55.0707 8.69733 54.7922 8.61608 54.4863C8.53483 54.1804 8.53704 53.8583 8.62249 53.5535L12.7874 39.149C12.8417 38.9588 12.9575 38.792 13.1168 38.6745C13.276 38.5571 13.4696 38.4958 13.6674 38.5C13.9071 38.5032 14.136 38.5999 14.3055 38.7694C14.475 38.9389 14.5717 39.1678 14.5749 39.4075V52.8138C14.5749 52.9966 14.6114 53.1776 14.6822 53.3462C14.753 53.5148 14.8568 53.6675 14.9874 53.7955L17.956 56.7105ZM61.098 3.83903C55.5609 2.35403 49.4765 4.23365 44.2405 8.99803C40.9381 5.75157 36.6072 3.758 31.9934 3.36053C29.9902 3.23163 27.9824 3.53005 26.1033 4.236C24.2242 4.94194 22.5166 6.03929 21.0937 7.45528C15.8797 12.6679 14.4291 22.4428 23.5687 31.5714L43.2739 51.2752C43.5317 51.5329 43.8814 51.6777 44.246 51.6777C44.6106 51.6777 44.9603 51.5329 45.2181 51.2752L64.9219 31.5714C70.3614 26.125 72.582 19.6309 71.0049 13.75C70.3825 11.3671 69.1367 9.19291 67.3955 7.45103C65.6543 5.70915 63.4807 4.46242 61.098 3.83903ZM62.9749 29.6313L44.2391 48.3629L25.5061 29.6313C22.2381 26.6696 20.1856 22.6004 19.7462 18.2119C19.6354 16.6479 19.8507 15.0779 20.3785 13.6015C20.9063 12.1251 21.7351 10.7744 22.8123 9.63516C23.8896 8.49588 25.1917 7.59283 26.6363 6.98325C28.0809 6.37368 29.6364 6.07087 31.2041 6.09403C34.9056 6.09403 39.1365 7.74403 43.267 11.869C43.5297 12.1175 43.8776 12.2559 44.2391 12.2559C44.6007 12.2559 44.9485 12.1175 45.2112 11.869C49.944 7.13628 55.477 5.18103 60.3857 6.4914C62.3003 6.99246 64.0469 7.99411 65.4463 9.39348C66.8457 10.7929 67.8473 12.5395 68.3484 14.454C69.6642 19.3669 67.7035 24.8985 62.9749 29.6313Z" fill="white"/>
<path d="M57.2959 10.5422C56.9312 10.5422 56.5815 10.687 56.3236 10.9449C56.0658 11.2028 55.9209 11.5525 55.9209 11.9172C55.9209 12.2818 56.0658 12.6316 56.3236 12.8894C56.5815 13.1473 56.9312 13.2922 57.2959 13.2922C58.1253 13.2672 58.9429 13.4929 59.642 13.9398C60.3411 14.3868 60.8892 15.0342 61.2147 15.7974C62.2074 18.1913 60.9603 21.4597 57.8803 24.5397C57.749 24.6665 57.6442 24.8182 57.5721 24.986C57.5001 25.1537 57.4621 25.3342 57.4606 25.5167C57.459 25.6993 57.4938 25.8804 57.5629 26.0494C57.632 26.2183 57.7341 26.3719 57.8632 26.501C57.9923 26.6301 58.1459 26.7322 58.3148 26.8013C58.4838 26.8704 58.6649 26.9052 58.8475 26.9036C59.03 26.9021 59.2105 26.8641 59.3782 26.7921C59.546 26.72 59.6977 26.6152 59.8245 26.4839C63.7185 22.5913 65.187 18.2023 63.7557 14.7456C63.2274 13.4759 62.3281 12.3954 61.1755 11.6454C60.0229 10.8954 58.6707 10.5109 57.2959 10.5422Z" fill="white"/>
<path d="M54.7261 30.6708C55.4855 30.6708 56.1011 30.0552 56.1011 29.2958C56.1011 28.5364 55.4855 27.9208 54.7261 27.9208C53.9667 27.9208 53.3511 28.5364 53.3511 29.2958C53.3511 30.0552 53.9667 30.6708 54.7261 30.6708Z" fill="white"/>
<path d="M30.25 77C31.0094 77 31.625 76.3844 31.625 75.625C31.625 74.8656 31.0094 74.25 30.25 74.25C29.4906 74.25 28.875 74.8656 28.875 75.625C28.875 76.3844 29.4906 77 30.25 77Z" fill="white"/>
</svg>
