<svg width="140" height="140" viewBox="0 0 140 140" fill="none" xmlns="http://www.w3.org/2000/svg">
<path d="M4.92601 96.4534C4.47642 96.4537 4.03767 96.3154 3.66948 96.0574C3.30129 95.7994 3.02154 95.4342 2.86829 95.0115C2.71505 94.5889 2.69577 94.1293 2.81306 93.6952C2.93036 93.2612 3.17854 92.8739 3.52382 92.5859L32.8538 68.1319C33.1839 67.8551 33.5883 67.6819 34.0163 67.6341C34.4444 67.5862 34.877 67.6658 35.2601 67.8628L45.6573 73.1741L54.9432 64.225C55.3509 63.832 55.8951 63.6125 56.4613 63.6125H62.3435L73.246 44.6447C73.4194 44.3405 73.6633 44.0825 73.9572 43.8921C74.251 43.7018 74.5863 43.5848 74.9348 43.5509C75.282 43.5202 75.6315 43.5716 75.9553 43.7007C76.279 43.8299 76.5678 44.0334 76.7985 44.2947L97.3435 68.0313L105.984 61.0772C106.423 60.7236 106.982 60.553 107.543 60.6011C108.105 60.6492 108.626 60.9122 108.999 61.3353L136.719 92.82C136.917 93.0341 137.07 93.2857 137.169 93.56C137.269 93.8342 137.312 94.1255 137.297 94.4169C137.282 94.7082 137.21 94.9936 137.083 95.2563C136.956 95.519 136.778 95.7537 136.559 95.9465C136.34 96.1394 136.085 96.2866 135.808 96.3793C135.532 96.4721 135.24 96.5086 134.949 96.4868C134.658 96.4649 134.374 96.3851 134.115 96.252C133.855 96.1189 133.625 95.9353 133.437 95.7119L107.104 65.8066L98.4504 72.7716C98.0091 73.1269 97.4473 73.2972 96.883 73.2466C96.3187 73.196 95.7961 72.9285 95.4251 72.5003L75.4969 49.4944L65.4935 66.8894C65.3013 67.2222 65.0249 67.4986 64.6919 67.6906C64.359 67.8826 63.9813 67.9835 63.5969 67.9831H57.3319L47.5604 77.4025C47.2325 77.7188 46.8141 77.9249 46.3635 77.9919C45.913 78.059 45.4527 77.9837 45.0469 77.7766L34.5469 72.4106L6.32601 95.9459C5.93306 96.2736 5.43767 96.4532 4.92601 96.4534Z" fill="white"/>
<path d="M77.1444 93.6928C76.6545 93.6934 76.1785 93.5295 75.7928 93.2274C75.4071 92.9253 75.134 92.5024 75.0172 92.0266C74.9005 91.5508 74.9469 91.0495 75.1489 90.6032C75.351 90.1568 75.697 89.7913 76.1316 89.565L95.9766 79.2181L105.438 61.7488C105.571 61.491 105.755 61.2625 105.979 61.0766C106.202 60.8907 106.46 60.7511 106.738 60.6659C107.015 60.5808 107.307 60.5519 107.596 60.5808C107.885 60.6097 108.166 60.6959 108.421 60.8343C108.677 60.9728 108.902 61.1607 109.084 61.3871C109.266 61.6135 109.401 61.8739 109.481 62.1531C109.561 62.4323 109.585 62.7247 109.551 63.0132C109.517 63.3017 109.426 63.5805 109.283 63.8334L99.5007 81.8913C99.2928 82.2744 98.9751 82.5867 98.5885 82.7881L78.1507 93.4456C77.8399 93.6074 77.4948 93.6922 77.1444 93.6928ZM39.0185 94.8216C38.7118 94.8231 38.4083 94.7602 38.1276 94.6368C37.8468 94.5135 37.5952 94.3325 37.3889 94.1056C37.1826 93.8787 37.0264 93.6109 36.9303 93.3198C36.8341 93.0286 36.8003 92.7204 36.831 92.4153L37.8963 81.6506L32.3007 70.8138C32.0344 70.2983 31.9838 69.6981 32.16 69.1453C32.3362 68.5926 32.7247 68.1324 33.2402 67.8661C33.7557 67.5998 34.3558 67.5492 34.9086 67.7254C35.4614 67.9016 35.9216 68.2902 36.1879 68.8056L42.081 80.2178C42.275 80.5929 42.3563 81.016 42.315 81.4363L41.8404 86.2203L55.6916 70.8531C55.9269 70.5914 56.222 70.3903 56.5516 70.267C56.8813 70.1436 57.2358 70.1016 57.5851 70.1446C57.9345 70.1875 58.2683 70.3141 58.5582 70.5137C58.8482 70.7132 59.0857 70.9797 59.2507 71.2906L64.1813 80.6203L69.2454 69.3634L72.9641 45.3906C73.0532 44.8171 73.3664 44.3025 73.8349 43.96C74.3034 43.6174 74.8888 43.475 75.4622 43.5641C76.0357 43.6531 76.5504 43.9664 76.8929 44.4348C77.2354 44.9033 77.3779 45.4887 77.2888 46.0622L73.5263 70.3259C73.4974 70.5202 73.4414 70.7094 73.36 70.8881L66.3382 86.5003C66.1701 86.8737 65.9005 87.1925 65.5602 87.4203C65.2199 87.648 64.8225 87.7757 64.4132 87.7888C64.0019 87.8125 63.5927 87.7148 63.2365 87.5079C62.8802 87.301 62.5926 86.994 62.4094 86.625L56.851 76.1009L40.6438 94.0997C40.4385 94.3271 40.1878 94.5089 39.9078 94.6333C39.6278 94.7576 39.3248 94.8218 39.0185 94.8216Z" fill="white"/>
<path d="M83.781 83.7813C83.3266 83.7818 82.8832 83.6408 82.5126 83.3779C82.1419 83.1149 81.8624 82.743 81.7128 82.3139C81.5632 81.8848 81.5509 81.4197 81.6777 80.9833C81.8045 80.5469 82.0641 80.1609 82.4204 79.8788L95.7204 69.3438C95.9461 69.1654 96.2046 69.0332 96.4814 68.9547C96.7581 68.8762 97.0476 68.8531 97.3333 68.8865C97.619 68.9199 97.8953 69.0093 98.1465 69.1495C98.3976 69.2897 98.6187 69.478 98.7971 69.7036C98.9755 69.9293 99.1077 70.1878 99.1862 70.4646C99.2646 70.7413 99.2878 71.0308 99.2544 71.3165C99.221 71.6022 99.1316 71.8785 98.9914 72.1297C98.8512 72.3808 98.6629 72.6019 98.4373 72.7803L85.146 83.3153C84.7568 83.6205 84.2756 83.7847 83.781 83.7813Z" fill="white"/>
</svg>
