<svg width="121" height="121" viewBox="0 0 121 121" fill="none" xmlns="http://www.w3.org/2000/svg">
<path d="M3.89844 100.581H14.3441C14.5051 100.865 14.7377 101.102 15.0187 101.268C15.2997 101.433 15.6192 101.523 15.9455 101.527H22.7839C24.2135 101.524 25.6088 101.089 26.787 100.279C27.9651 99.4696 28.8711 98.3227 29.386 96.9891H39.9451L70.9079 108.611C73.3685 109.54 76.0077 109.9 78.6272 109.663C81.2468 109.426 83.7787 108.599 86.0329 107.244L118.572 86.636C118.967 86.386 119.302 86.0536 119.556 85.6617C119.81 85.2698 119.976 84.8276 120.043 84.3655C120.11 83.9034 120.076 83.4323 119.943 82.9845C119.811 82.5367 119.583 82.1229 119.276 81.7714C117.389 79.597 114.89 78.044 112.104 77.3165C109.319 76.589 106.379 76.721 103.671 77.6953L102.364 78.1585C100.605 72.4213 97.1926 67.3305 92.554 63.5236C87.9154 59.7166 82.2568 57.3627 76.2867 56.7566V45.0631C76.7367 45.1009 77.2074 45.1273 77.7198 45.1273C80.4625 45.0997 83.1649 44.463 85.6315 43.2634C88.0981 42.0637 90.2674 40.3311 91.9827 38.1906C102.103 26.5482 94.8867 9.81047 94.5747 9.10338C94.4162 8.75213 94.1551 8.45707 93.8258 8.25697C93.4964 8.05687 93.1142 7.96109 92.7295 7.98224C86.1493 8.54397 79.8598 10.9451 74.5795 14.9114C69.6182 10.6895 63.5871 7.92 57.1517 6.90836C56.7686 6.8574 56.3792 6.92504 56.0357 7.10216C55.6923 7.27929 55.4114 7.5574 55.2308 7.89905C54.8697 8.58156 46.4942 24.771 55.7715 37.096C57.4291 39.531 59.6511 41.529 62.2479 42.9196C64.8447 44.3101 67.7393 45.052 70.6848 45.082C71.2961 45.0811 71.907 45.0483 72.5149 44.9837V56.5978C68.0182 56.6921 63.5968 57.7701 59.5613 59.756C55.5259 61.7419 51.9743 64.5875 49.1562 68.0928C47.1589 67.7938 45.1315 67.7506 43.1232 67.9642L29.1496 69.4559C28.5727 68.2585 27.6705 67.2476 26.5461 66.5388C25.4217 65.83 24.1206 65.4519 22.7915 65.4478H15.9455C15.6192 65.4516 15.2997 65.5409 15.0187 65.7068C14.7377 65.8726 14.5051 66.1093 14.3441 66.3931H3.89844C3.39701 66.3931 2.91612 66.5923 2.56156 66.9469C2.207 67.3014 2.00781 67.7823 2.00781 68.2837V98.6907C2.00781 99.1921 2.207 99.673 2.56156 100.028C2.91612 100.382 3.39701 100.581 3.89844 100.581ZM89.1297 35.7045C87.8169 37.3522 86.1713 38.7046 84.3004 39.6731C82.4294 40.6417 80.3752 41.2046 78.2719 41.3253C80.04 38.8965 81.1794 36.0677 81.5885 33.0914C81.9976 30.1151 81.6635 27.0839 80.6162 24.2681C79.8588 21.8982 78.686 19.682 77.1526 17.7227C81.4016 14.5983 86.3717 12.599 91.6008 11.911C92.9544 15.7735 96.2101 27.5597 89.1297 35.7045ZM58.7833 34.8159C52.2928 26.1965 56.3671 14.6675 57.9892 10.9014C61.9955 11.7635 73.7514 15.1269 77.0127 25.4119C77.905 27.7498 78.1781 30.2785 77.8054 32.7529C77.4328 35.2274 76.427 37.5635 74.8857 39.5349L65.3872 21.124L62.0276 22.8558L71.5204 41.261C69.0229 41.3685 66.5398 40.8322 64.3093 39.7036C62.0788 38.5749 60.1759 36.8918 58.7833 34.8159ZM73.0821 60.3563C78.8505 60.3386 84.4702 62.1853 89.1037 65.6213C93.7371 69.0572 97.1363 73.8984 98.7946 79.4233L80.1171 86.0518C79.4668 84.7712 78.4714 83.6979 77.2433 82.9531L58.1537 71.3314C56.618 70.4041 54.9831 69.652 53.2797 69.0891C55.7996 66.3465 58.8598 64.1548 62.2677 62.652C65.6756 61.1491 69.3575 60.3675 73.0821 60.3563ZM43.5184 71.7228C47.9368 71.265 52.3841 72.2607 56.1856 74.5587L75.2695 86.1804C76.1132 86.7015 76.7313 87.5195 77.0022 88.4734C77.2732 89.4273 77.1773 90.4481 76.7336 91.3349C76.2898 92.2217 75.5303 92.9104 74.6043 93.2654C73.6784 93.6204 72.6532 93.6161 71.7303 93.2532L53.291 85.8798L51.8882 89.3907L70.3274 96.7641C71.4877 97.2281 72.743 97.4047 73.9862 97.2789C75.2295 97.1531 76.4239 96.7285 77.4677 96.0415C78.5115 95.3544 79.3737 94.4252 79.9808 93.333C80.588 92.2408 80.9221 91.018 80.9546 89.7688L104.93 81.261C106.822 80.5804 108.87 80.4576 110.831 80.907C112.791 81.3564 114.581 82.3593 115.988 83.7963L84.0477 104.026C82.2852 105.079 80.3075 105.72 78.2624 105.902C76.2173 106.084 74.1576 105.801 72.237 105.075L40.9528 93.3232C40.7405 93.244 40.5157 93.2037 40.2892 93.2041H29.8718V73.1804L43.5184 71.7228ZM17.8361 69.229H22.7839C23.6614 69.2315 24.5022 69.5818 25.122 70.203C25.7418 70.8242 26.0901 71.6658 26.0906 72.5433V94.4367C26.0886 95.3133 25.7396 96.1534 25.12 96.7734C24.5004 97.3934 23.6604 97.7428 22.7839 97.7453H17.8361V69.229ZM5.78906 70.1744H14.0549V96.8H5.78906V70.1744Z" fill="white"/>
</svg>
