<svg width="88" height="88" viewBox="0 0 88 88" fill="none" xmlns="http://www.w3.org/2000/svg">
<path d="M38.5002 44C37.1678 44.004 35.8824 44.4927 34.8839 45.375H34.3752V37.125C34.3752 36.7603 34.2303 36.4106 33.9725 36.1527C33.7146 35.8949 33.3649 35.75 33.0002 35.75H23.6804C23.4147 35.7501 23.1546 35.8272 22.9317 35.9719C22.7089 36.1167 22.5327 36.323 22.4246 36.5658C22.3166 36.8086 22.2812 37.0775 22.3227 37.34C22.3643 37.6025 22.481 37.8473 22.6588 38.0449C23.0175 38.439 23.254 38.9288 23.3396 39.4548C23.4251 39.9808 23.3559 40.5203 23.1405 41.0078C22.925 41.4952 22.5726 41.9095 22.1261 42.2004C21.6795 42.4912 21.1581 42.6461 20.6252 42.6461C20.0923 42.6461 19.5708 42.4912 19.1243 42.2004C18.6778 41.9095 18.3253 41.4952 18.1099 41.0078C17.8945 40.5203 17.8253 39.9808 17.9108 39.4548C17.9963 38.9288 18.2328 38.439 18.5916 38.0449C18.7694 37.8473 18.8861 37.6025 18.9277 37.34C18.9692 37.0775 18.9338 36.8086 18.8257 36.5658C18.7176 36.323 18.5415 36.1167 18.3186 35.9719C18.0958 35.8272 17.8357 35.7501 17.5699 35.75H8.25019C7.88552 35.75 7.53578 35.8949 7.27792 36.1527C7.02005 36.4106 6.87519 36.7603 6.87519 37.125V61.875C6.87519 62.2397 7.02005 62.5894 7.27792 62.8473C7.53578 63.1051 7.88552 63.25 8.25019 63.25H8.96931L6.97281 68.2399C6.83779 68.5785 6.84273 68.9568 6.98656 69.2918L11.0002 78.6569V83.875C11.0002 84.2397 11.1451 84.5894 11.4029 84.8473C11.6608 85.1051 12.0105 85.25 12.3752 85.25C12.7399 85.25 13.0896 85.1051 13.3475 84.8473C13.6053 84.5894 13.7502 84.2397 13.7502 83.875V78.375C13.7507 78.1887 13.7128 78.0042 13.6388 77.8332L9.73794 68.7308L11.9311 63.25H17.8752V68.75C17.8752 69.1147 18.0201 69.4644 18.2779 69.7223C18.5358 69.9801 18.8855 70.125 19.2502 70.125C19.6149 70.125 19.9646 69.9801 20.2225 69.7223C20.4803 69.4644 20.6252 69.1147 20.6252 68.75V56.375C20.6252 55.6457 20.9149 54.9462 21.4306 54.4305C21.9464 53.9147 22.6458 53.625 23.3752 53.625C24.1045 53.625 24.804 53.9147 25.3197 54.4305C25.8355 54.9462 26.1252 55.6457 26.1252 56.375V67.375C26.1252 67.7397 26.2701 68.0894 26.5279 68.3473C26.7858 68.6051 27.1355 68.75 27.5002 68.75C29.7359 68.75 31.6252 71.8988 31.6252 75.625C31.6252 79.3512 29.7359 82.5 27.5002 82.5C27.1355 82.5 26.7858 82.6449 26.5279 82.9027C26.2701 83.1606 26.1252 83.5103 26.1252 83.875C26.1252 84.2397 26.2701 84.5894 26.5279 84.8473C26.7858 85.1051 27.1355 85.25 27.5002 85.25C31.3502 85.25 34.3752 81.0219 34.3752 75.625C34.3752 70.8895 32.0501 67.0532 28.8752 66.1856V63.25H33.0002C33.3649 63.25 33.7146 63.1051 33.9725 62.8473C34.2303 62.5894 34.3752 62.2397 34.3752 61.875V53.625H34.8839C35.5521 54.2142 36.3533 54.6323 37.2187 54.8434C38.0842 55.0544 38.988 55.0521 39.8523 54.8366C40.7167 54.6211 41.5158 54.1989 42.1808 53.6062C42.8459 53.0136 43.3571 52.2683 43.6704 51.4344C43.9837 50.6005 44.0898 49.7029 43.9795 48.819C43.8692 47.935 43.5458 47.0911 43.0372 46.3597C42.5286 45.6284 41.85 45.0315 41.0596 44.6205C40.2693 44.2094 39.391 43.9965 38.5002 44ZM38.5002 52.25C38.1153 52.2494 37.7349 52.167 37.3843 52.0081C37.0337 51.8493 36.7208 51.6177 36.4666 51.3288C36.3375 51.1858 36.1799 51.0715 36.0039 50.9934C35.828 50.9152 35.6375 50.8749 35.4449 50.875H33.0002C32.6355 50.875 32.2858 51.0199 32.0279 51.2777C31.7701 51.5356 31.6252 51.8853 31.6252 52.25V60.5H28.8752V56.375C28.8752 54.9163 28.2957 53.5174 27.2643 52.4859C26.2328 51.4545 24.8339 50.875 23.3752 50.875C21.9165 50.875 20.5176 51.4545 19.4861 52.4859C18.4546 53.5174 17.8752 54.9163 17.8752 56.375V60.5H9.62519V38.5H15.3039C15.1851 38.9487 15.125 39.4109 15.1252 39.875C15.1252 41.3337 15.7046 42.7326 16.7361 43.7641C17.7675 44.7955 19.1665 45.375 20.6252 45.375C22.0839 45.375 23.4828 44.7955 24.5143 43.7641C25.5457 42.7326 26.1252 41.3337 26.1252 39.875C26.1254 39.4109 26.0653 38.9487 25.9464 38.5H31.6252V46.75C31.6252 47.1147 31.7701 47.4644 32.0279 47.7223C32.2858 47.9801 32.6355 48.125 33.0002 48.125H35.4449C35.6375 48.1251 35.828 48.0848 36.0039 48.0066C36.1799 47.9285 36.3375 47.8142 36.4666 47.6712C36.7208 47.3823 37.0337 47.1507 37.3843 46.9919C37.7349 46.833 38.1153 46.7506 38.5002 46.75C39.2295 46.75 39.929 47.0397 40.4447 47.5555C40.9605 48.0712 41.2502 48.7707 41.2502 49.5C41.2502 50.2293 40.9605 50.9288 40.4447 51.4445C39.929 51.9603 39.2295 52.25 38.5002 52.25Z" fill="white"/>
<path d="M77 20.6251C75.6676 20.6291 74.3822 21.1178 73.3837 22.0001H72.875V13.7501C72.875 13.3854 72.7301 13.0356 72.4723 12.7778C72.2144 12.5199 71.8647 12.3751 71.5 12.3751H62.1803C61.9145 12.3751 61.6544 12.4522 61.4316 12.597C61.2087 12.7418 61.0326 12.948 60.9245 13.1908C60.8164 13.4336 60.781 13.7026 60.8225 13.9651C60.8641 14.2276 60.9808 14.4724 61.1586 14.6699C61.5174 15.064 61.7539 15.5538 61.8394 16.0799C61.9249 16.6059 61.8557 17.1454 61.6403 17.6328C61.4248 18.1202 61.0724 18.5346 60.6259 18.8254C60.1793 19.1163 59.6579 19.2711 59.125 19.2711C58.5921 19.2711 58.0707 19.1163 57.6241 18.8254C57.1776 18.5346 56.8252 18.1202 56.6097 17.6328C56.3943 17.1454 56.3251 16.6059 56.4106 16.0799C56.4961 15.5538 56.7326 15.064 57.0914 14.6699C57.2692 14.4724 57.3859 14.2276 57.4275 13.9651C57.469 13.7026 57.4336 13.4336 57.3255 13.1908C57.2174 12.948 57.0413 12.7418 56.8184 12.597C56.5956 12.4522 56.3355 12.3751 56.0697 12.3751H38.5V11.8663C39.2001 11.0725 39.6563 10.0935 39.8138 9.04678C39.9713 8.0001 39.8234 6.93021 39.3879 5.96549C38.9524 5.00076 38.2478 4.18219 37.3586 3.608C36.4694 3.03381 35.4335 2.72839 34.375 2.72839C33.3165 2.72839 32.2806 3.03381 31.3914 3.608C30.5022 4.18219 29.7976 5.00076 29.3621 5.96549C28.9266 6.93021 28.7787 8.0001 28.9362 9.04678C29.0937 10.0935 29.5499 11.0725 30.25 11.8663V12.3751H22C21.6353 12.3751 21.2856 12.5199 21.0277 12.7778C20.7699 13.0356 20.625 13.3854 20.625 13.7501V23.0698C20.6251 23.3356 20.7022 23.5956 20.8469 23.8185C20.9917 24.0414 21.198 24.2175 21.4408 24.3256C21.6836 24.4337 21.9525 24.4691 22.215 24.4275C22.4775 24.386 22.7223 24.2692 22.9199 24.0914C23.314 23.7327 23.8038 23.4962 24.3298 23.4107C24.8558 23.3252 25.3953 23.3943 25.8828 23.6098C26.3702 23.8252 26.7845 24.1776 27.0754 24.6242C27.3662 25.0707 27.5211 25.5921 27.5211 26.1251C27.5211 26.658 27.3662 27.1794 27.0754 27.6259C26.7845 28.0725 26.3702 28.4249 25.8828 28.6403C25.3953 28.8558 24.8558 28.9249 24.3298 28.8394C23.8038 28.7539 23.314 28.5174 22.9199 28.1587C22.7223 27.9809 22.4775 27.8641 22.215 27.8226C21.9525 27.781 21.6836 27.8164 21.4408 27.9245C21.198 28.0326 20.9917 28.2087 20.8469 28.4316C20.7022 28.6545 20.6251 28.9145 20.625 29.1803V33.0001H23.375V31.4463C23.8237 31.5651 24.2859 31.6252 24.75 31.6251C26.2087 31.6251 27.6076 31.0456 28.6391 30.0141C29.6705 28.9827 30.25 27.5837 30.25 26.1251C30.25 24.6664 29.6705 23.2674 28.6391 22.236C27.6076 21.2045 26.2087 20.6251 24.75 20.6251C24.2859 20.6249 23.8237 20.685 23.375 20.8038V15.1251H31.625C31.9897 15.1251 32.3394 14.9802 32.5973 14.7223C32.8551 14.4645 33 14.1147 33 13.7501V11.3053C33.0001 11.1127 32.9598 10.9223 32.8816 10.7463C32.8035 10.5703 32.6892 10.4127 32.5463 10.2837C32.2573 10.0294 32.0257 9.71658 31.8669 9.36597C31.708 9.01535 31.6256 8.63497 31.625 8.25005C31.625 7.52071 31.9147 6.82123 32.4305 6.30551C32.9462 5.78978 33.6457 5.50005 34.375 5.50005C35.1043 5.50005 35.8038 5.78978 36.3195 6.30551C36.8353 6.82123 37.125 7.52071 37.125 8.25005C37.1244 8.63497 37.042 9.01535 36.8831 9.36597C36.7243 9.71658 36.4927 10.0294 36.2037 10.2837C36.0608 10.4127 35.9465 10.5703 35.8684 10.7463C35.7902 10.9223 35.7499 11.1127 35.75 11.3053V13.7501C35.75 14.1147 35.8949 14.4645 36.1527 14.7223C36.4106 14.9802 36.7603 15.1251 37.125 15.1251H45.375V20.8038C44.9263 20.685 44.4641 20.6249 44 20.6251C42.5413 20.6251 41.1424 21.2045 40.1109 22.236C39.0795 23.2674 38.5 24.6664 38.5 26.1251C38.5 27.5837 39.0795 28.9827 40.1109 30.0141C41.1424 31.0456 42.5413 31.6251 44 31.6251C44.4641 31.6252 44.9263 31.5651 45.375 31.4463V37.125H37.125V39.875H45.375V47.8198C45.3751 48.0856 45.4522 48.3456 45.5969 48.5685C45.7417 48.7914 45.948 48.9675 46.1908 49.0756C46.4336 49.1837 46.7025 49.2191 46.965 49.1775C47.2275 49.136 47.4723 49.0192 47.6699 48.8414C48.064 48.4827 48.5538 48.2462 49.0798 48.1607C49.6058 48.0752 50.1453 48.1443 50.6328 48.3598C51.1202 48.5752 51.5345 48.9276 51.8254 49.3742C52.1162 49.8207 52.2711 50.3421 52.2711 50.875C52.2711 51.408 52.1162 51.9294 51.8254 52.3759C51.5345 52.8225 51.1202 53.1749 50.6328 53.3903C50.1453 53.6058 49.6058 53.6749 49.0798 53.5894C48.5538 53.5039 48.064 53.2674 47.6699 52.9087C47.4723 52.7309 47.2275 52.6141 46.965 52.5726C46.7025 52.531 46.4336 52.5664 46.1908 52.6745C45.948 52.7826 45.7417 52.9587 45.5969 53.1816C45.4522 53.4045 45.3751 53.6645 45.375 53.9303V63.25C45.375 63.6147 45.5199 63.9645 45.7777 64.2223C46.0356 64.4802 46.3853 64.625 46.75 64.625H55V65.1338C54.2999 65.9276 53.8437 66.9066 53.6862 67.9533C53.5287 69 53.6766 70.0699 54.1121 71.0346C54.5476 71.9993 55.2522 72.8179 56.1414 73.3921C57.0306 73.9663 58.0665 74.2717 59.125 74.2717C60.1835 74.2717 61.2194 73.9663 62.1086 73.3921C62.9978 72.8179 63.7024 71.9993 64.1379 71.0346C64.5734 70.0699 64.7213 69 64.5638 67.9533C64.4063 66.9066 63.9501 65.9276 63.25 65.1338V64.625H71.5C71.8647 64.625 72.2144 64.4802 72.4723 64.2223C72.7301 63.9645 72.875 63.6147 72.875 63.25V53.9303C72.8749 53.6645 72.7978 53.4045 72.6531 53.1816C72.5083 52.9587 72.302 52.7826 72.0592 52.6745C71.8164 52.5664 71.5475 52.531 71.285 52.5726C71.0225 52.6141 70.7777 52.7309 70.5801 52.9087C70.186 53.2674 69.6962 53.5039 69.1702 53.5894C68.6442 53.6749 68.1047 53.6058 67.6172 53.3903C67.1298 53.1749 66.7155 52.8225 66.4246 52.3759C66.1338 51.9294 65.9789 51.408 65.9789 50.875C65.9789 50.3421 66.1338 49.8207 66.4246 49.3742C66.7155 48.9276 67.1298 48.5752 67.6172 48.3598C68.1047 48.1443 68.6442 48.0752 69.1702 48.1607C69.6962 48.2462 70.186 48.4827 70.5801 48.8414C70.7777 49.0192 71.0225 49.136 71.285 49.1775C71.5475 49.2191 71.8164 49.1837 72.0592 49.0756C72.302 48.9675 72.5083 48.7914 72.6531 48.5685C72.7978 48.3456 72.8749 48.0856 72.875 47.8198V30.2501H73.3837C74.0519 30.8393 74.8531 31.2574 75.7186 31.4684C76.584 31.6795 77.4878 31.6771 78.3521 31.4616C79.2165 31.2461 80.0156 30.8239 80.6807 30.2313C81.3457 29.6386 81.8569 28.8933 82.1702 28.0594C82.4835 27.2255 82.5896 26.328 82.4793 25.444C82.369 24.5601 82.0456 23.7161 81.537 22.9848C81.0284 22.2534 80.3498 21.6566 79.5595 21.2455C78.7691 20.8345 77.8908 20.6216 77 20.6251ZM68.75 45.375C67.2913 45.375 65.8924 45.9545 64.8609 46.986C63.8295 48.0174 63.25 49.4164 63.25 50.875C63.25 52.3337 63.8295 53.7327 64.8609 54.7641C65.8924 55.7956 67.2913 56.375 68.75 56.375C69.2141 56.3752 69.6763 56.3151 70.125 56.1963V61.875H61.875C61.5103 61.875 61.1606 62.0199 60.9027 62.2778C60.6449 62.5356 60.5 62.8854 60.5 63.25V65.6948C60.4999 65.8874 60.5402 66.0778 60.6184 66.2538C60.6965 66.4298 60.8108 66.5874 60.9538 66.7164C61.2427 66.9707 61.4743 67.2835 61.6331 67.6341C61.792 67.9847 61.8744 68.3651 61.875 68.7501C61.875 69.4794 61.5853 70.1789 61.0695 70.6946C60.5538 71.2103 59.8543 71.5001 59.125 71.5001C58.3957 71.5001 57.6962 71.2103 57.1805 70.6946C56.6647 70.1789 56.375 69.4794 56.375 68.7501C56.3756 68.3651 56.458 67.9847 56.6169 67.6341C56.7757 67.2835 57.0073 66.9707 57.2962 66.7164C57.4392 66.5874 57.5535 66.4298 57.6316 66.2538C57.7098 66.0778 57.7501 65.8874 57.75 65.6948V63.25C57.75 62.8854 57.6051 62.5356 57.3473 62.2778C57.0894 62.0199 56.7397 61.875 56.375 61.875H48.125V56.1963C48.5737 56.3151 49.0359 56.3752 49.5 56.375C50.9587 56.375 52.3576 55.7956 53.3891 54.7641C54.4205 53.7327 55 52.3337 55 50.875C55 49.4164 54.4205 48.0174 53.3891 46.986C52.3576 45.9545 50.9587 45.375 49.5 45.375C49.0359 45.3749 48.5737 45.435 48.125 45.5538V39.875H56.0697C56.3355 39.875 56.5956 39.7979 56.8184 39.6531C57.0413 39.5083 57.2174 39.3021 57.3255 39.0593C57.4336 38.8165 57.469 38.5475 57.4275 38.285C57.3859 38.0225 57.2692 37.7777 57.0914 37.5802C56.7326 37.1861 56.4961 36.6963 56.4106 36.1702C56.3251 35.6442 56.3943 35.1047 56.6097 34.6173C56.8252 34.1299 57.1776 33.7155 57.6241 33.4247C58.0707 33.1338 58.5921 32.979 59.125 32.979C59.6579 32.979 60.1793 33.1338 60.6259 33.4247C61.0724 33.7155 61.4248 34.1299 61.6403 34.6173C61.8557 35.1047 61.9249 35.6442 61.8394 36.1702C61.7539 36.6963 61.5174 37.1861 61.1586 37.5802C60.9808 37.7777 60.8641 38.0225 60.8225 38.285C60.781 38.5475 60.8164 38.8165 60.9245 39.0593C61.0326 39.3021 61.2087 39.5083 61.4316 39.6531C61.6544 39.7979 61.9145 39.875 62.1803 39.875H70.125V45.5538C69.6763 45.435 69.2141 45.3749 68.75 45.375ZM77 28.8751C76.6151 28.8745 76.2347 28.792 75.8841 28.6332C75.5335 28.4744 75.2206 28.2428 74.9664 27.9538C74.8374 27.8108 74.6797 27.6966 74.5038 27.6184C74.3278 27.5403 74.1373 27.4999 73.9447 27.5001H71.5C71.1353 27.5001 70.7856 27.6449 70.5277 27.9028C70.2699 28.1606 70.125 28.5104 70.125 28.8751V37.125H64.4462C64.5651 36.6764 64.6252 36.2142 64.625 35.75C64.625 34.2914 64.0455 32.8924 63.0141 31.861C61.9826 30.8295 60.5837 30.2501 59.125 30.2501C57.6663 30.2501 56.2674 30.8295 55.2359 31.861C54.2045 32.8924 53.625 34.2914 53.625 35.75C53.6248 36.2142 53.6849 36.6764 53.8038 37.125H48.125V29.1803C48.1249 28.9145 48.0478 28.6545 47.9031 28.4316C47.7583 28.2087 47.552 28.0326 47.3092 27.9245C47.0664 27.8164 46.7975 27.781 46.535 27.8226C46.2725 27.8641 46.0277 27.9809 45.8301 28.1587C45.436 28.5174 44.9462 28.7539 44.4202 28.8394C43.8942 28.9249 43.3547 28.8558 42.8672 28.6403C42.3798 28.4249 41.9655 28.0725 41.6746 27.6259C41.3838 27.1794 41.2289 26.658 41.2289 26.1251C41.2289 25.5921 41.3838 25.0707 41.6746 24.6242C41.9655 24.1776 42.3798 23.8252 42.8672 23.6098C43.3547 23.3943 43.8942 23.3252 44.4202 23.4107C44.9462 23.4962 45.436 23.7327 45.8301 24.0914C46.0277 24.2692 46.2725 24.386 46.535 24.4275C46.7975 24.4691 47.0664 24.4337 47.3092 24.3256C47.552 24.2175 47.7583 24.0414 47.9031 23.8185C48.0478 23.5956 48.1249 23.3356 48.125 23.0698V15.1251H53.8038C53.6849 15.5737 53.6248 16.0359 53.625 16.5001C53.625 17.9587 54.2045 19.3577 55.2359 20.3891C56.2674 21.4206 57.6663 22.0001 59.125 22.0001C60.5837 22.0001 61.9826 21.4206 63.0141 20.3891C64.0455 19.3577 64.625 17.9587 64.625 16.5001C64.6252 16.0359 64.5651 15.5737 64.4462 15.1251H70.125V23.3751C70.125 23.7397 70.2699 24.0895 70.5277 24.3473C70.7856 24.6052 71.1353 24.7501 71.5 24.7501H73.9447C74.1373 24.7502 74.3278 24.7098 74.5038 24.6317C74.6797 24.5535 74.8374 24.4393 74.9664 24.2963C75.2206 24.0073 75.5335 23.7757 75.8841 23.6169C76.2347 23.4581 76.6151 23.3756 77 23.3751C77.7293 23.3751 78.4288 23.6648 78.9445 24.1805C79.4603 24.6962 79.75 25.3957 79.75 26.1251C79.75 26.8544 79.4603 27.5539 78.9445 28.0696C78.4288 28.5853 77.7293 28.8751 77 28.8751Z" fill="white"/>
</svg>
