<svg width="88" height="88" viewBox="0 0 88 88" fill="none" xmlns="http://www.w3.org/2000/svg">
<path d="M43.9999 17.05L51.6999 29.15L42.8999 35.2L50.0499 36.85L65.4499 40.15L68.7499 25.3L70.9499 17.6L61.0499 23.65L50.0499 5.5H37.9499L23.6499 29.15L32.9999 34.65L43.9999 17.05Z" fill="white"/>
<path d="M88 66L73.15 42.35L63.8 47.85L74.8 66H60.5V55L44 71.5L60.5 88V77H80.85L88 66Z" fill="white"/>
<path d="M13.2 66L20.9 53.35L30.25 59.4L25.3 36.3L9.9 40.15L2.75 41.8L11.55 47.3L0 66L7.15 77H38.5V66H13.2Z" fill="white"/>
</svg>
