<svg width="88" height="88" viewBox="0 0 88 88" fill="none" xmlns="http://www.w3.org/2000/svg">
<path d="M46.739 36.2175C49.9455 37.3478 52.25 40.4113 52.25 44M74.25 79.75H13.75V71.5C13.75 68.4612 16.2112 66 19.25 66H68.75C71.7888 66 74.25 68.4612 74.25 71.5V79.75ZM63.25 66H24.75V44C24.75 33.3685 33.3685 24.75 44 24.75C54.6315 24.75 63.25 33.3685 63.25 44V66Z" stroke="white" stroke-width="2" stroke-miterlimit="10" stroke-linecap="round" stroke-linejoin="round"/>
<path d="M44 8.25V13.75" stroke="white" stroke-width="2" stroke-miterlimit="10" stroke-linecap="round" stroke-linejoin="round"/>
<path d="M18.7222 18.722L22.6107 22.6105" stroke="white" stroke-width="2" stroke-miterlimit="10" stroke-linecap="round" stroke-linejoin="round"/>
<path d="M69.2781 18.722L65.3896 22.6105" stroke="white" stroke-width="2" stroke-miterlimit="10" stroke-linecap="round" stroke-linejoin="round"/>
<path d="M8.25 44H13.75" stroke="white" stroke-width="2" stroke-miterlimit="10" stroke-linecap="round" stroke-linejoin="round"/>
<path d="M74.25 44H79.75" stroke="white" stroke-width="2" stroke-miterlimit="10" stroke-linecap="round" stroke-linejoin="round"/>
</svg>
