<svg width="88" height="88" viewBox="0 0 88 88" fill="none" xmlns="http://www.w3.org/2000/svg">
<path d="M82.5 27.5H60.5C60.5 28.9587 59.9205 30.3576 58.8891 31.3891C57.8576 32.4205 56.4587 33 55 33H82.5V44H55C56.4587 44 57.8576 44.5795 58.8891 45.6109C59.9205 46.6424 60.5 48.0413 60.5 49.5H82.5V82.5H5.5V49.5H27.5C27.5 48.0413 28.0795 46.6424 29.1109 45.6109C30.1424 44.5795 31.5413 44 33 44H5.5V33H33C31.5413 33 30.1424 32.4205 29.1109 31.3891C28.0795 30.3576 27.5 28.9587 27.5 27.5H5.5C4.04131 27.5 2.64236 28.0795 1.61091 29.1109C0.579463 30.1424 0 31.5413 0 33L0 82.5C0 83.9587 0.579463 85.3576 1.61091 86.3891C2.64236 87.4205 4.04131 88 5.5 88H82.5C83.9587 88 85.3576 87.4205 86.3891 86.3891C87.4205 85.3576 88 83.9587 88 82.5V33C88 31.5413 87.4205 30.1424 86.3891 29.1109C85.3576 28.0795 83.9587 27.5 82.5 27.5ZM33 33H55C56.4587 33 57.8576 32.4205 58.8891 31.3891C59.9205 30.3576 60.5 28.9587 60.5 27.5V22C60.5 20.5413 59.9205 19.1424 58.8891 18.1109C57.8576 17.0795 56.4587 16.5 55 16.5H33C31.5413 16.5 30.1424 17.0795 29.1109 18.1109C28.0795 19.1424 27.5 20.5413 27.5 22V27.5C27.5 28.9587 28.0795 30.3576 29.1109 31.3891C30.1424 32.4205 31.5413 33 33 33ZM33 22H55V27.5H33V22ZM27.5 49.5V55C27.5 56.4587 28.0795 57.8576 29.1109 58.8891C30.1424 59.9205 31.5413 60.5 33 60.5H55C56.4587 60.5 57.8576 59.9205 58.8891 58.8891C59.9205 57.8576 60.5 56.4587 60.5 55V49.5C60.5 48.0413 59.9205 46.6424 58.8891 45.6109C57.8576 44.5795 56.4587 44 55 44H33C31.5413 44 30.1424 44.5795 29.1109 45.6109C28.0795 46.6424 27.5 48.0413 27.5 49.5ZM55 55H33V49.5H55V55Z" fill="#FEFEFE"/>
</svg>
