<svg width="88" height="88" viewBox="0 0 88 88" fill="none" xmlns="http://www.w3.org/2000/svg">
<path d="M43.9888 0.0109927C39.7396 0.00754429 35.6091 1.41274 32.2435 4.00674C27.3815 7.75499 24.7828 13.486 24.8048 19.3517C21.4015 19.5954 18.1395 20.8098 15.4056 22.8512C12.6717 24.8925 10.5805 27.675 9.38001 30.8687C8.11 34.2692 7.90465 37.9755 8.79126 41.4954C9.67787 45.0153 11.6145 48.1822 14.3438 50.5752C16.8609 52.7685 19.9425 54.212 23.2388 54.7419C26.5351 55.2717 29.9139 54.8667 32.9915 53.5727L32.9998 53.625V75.625C32.9998 80.982 28.7318 85.25 23.3748 85.25C23.0101 85.25 22.6603 85.3949 22.4025 85.6527C22.1446 85.9106 21.9998 86.2603 21.9998 86.625C21.9998 86.9897 22.1446 87.3394 22.4025 87.5973C22.6603 87.8551 23.0101 88 23.3748 88C30.2058 88 35.7498 82.456 35.7498 75.625V53.625C35.7527 51.9991 35.4345 50.3886 34.8137 48.8859C34.1928 47.3831 33.2814 46.0178 32.1317 44.8681C30.982 43.7184 29.6166 42.807 28.1139 42.1861C26.6112 41.5652 25.0007 41.2471 23.3748 41.25C23.0101 41.25 22.6603 41.3949 22.4025 41.6527C22.1446 41.9106 21.9998 42.2603 21.9998 42.625C21.9998 42.9897 22.1446 43.3394 22.4025 43.5973C22.6603 43.8551 23.0101 44 23.3748 44C24.6637 43.9964 25.9401 44.2517 27.1285 44.7507C28.2808 45.2375 29.3148 45.9442 30.1865 46.8132C31.2755 47.905 32.0593 49.2717 32.5268 50.7842C29.8731 52.0376 26.9115 52.4897 24.0047 52.0853C21.0979 51.6809 18.3722 50.4374 16.1615 48.5072C13.8489 46.4837 12.2076 43.8038 11.4559 40.8242C10.7043 37.8447 10.878 34.7069 11.954 31.8285C12.9704 29.1219 14.7433 26.7645 17.0617 25.0371C19.38 23.3097 22.146 22.285 25.0303 22.0852C25.264 23.6527 25.627 25.2202 26.265 26.7327C26.3292 26.9074 26.4282 27.0672 26.556 27.2025C26.6838 27.3378 26.8377 27.4457 27.0084 27.5198C27.1792 27.5938 27.3631 27.6325 27.5492 27.6333C27.7353 27.6342 27.9197 27.5972 28.0911 27.5248C28.2625 27.4523 28.4174 27.3458 28.5464 27.2117C28.6754 27.0776 28.7759 26.9187 28.8417 26.7446C28.9075 26.5706 28.9373 26.3849 28.9293 26.199C28.9213 26.0131 28.8756 25.8307 28.795 25.663C27.378 22.3063 27.1127 18.5747 28.0406 15.0513C28.9685 11.5278 31.0373 8.41094 33.9238 6.18749C36.8082 3.96247 40.3486 2.75567 43.9915 2.75567C47.6344 2.75567 51.1748 3.96247 54.0593 6.18749C56.9483 8.40769 59.0207 11.5223 59.9525 15.0448C60.8844 18.5672 60.6233 22.2991 59.21 25.6575C59.1376 25.8244 59.0989 26.0041 59.0964 26.186C59.0939 26.368 59.1276 26.5486 59.1954 26.7175C59.2632 26.8863 59.3639 27.04 59.4915 27.1697C59.6192 27.2994 59.7714 27.4024 59.9391 27.4728C60.1069 27.5433 60.287 27.5797 60.469 27.58C60.651 27.5803 60.8312 27.5445 60.9992 27.4746C61.1672 27.4047 61.3197 27.3022 61.4478 27.173C61.5759 27.0438 61.6771 26.8904 61.7455 26.7217C62.3808 25.2092 62.7438 23.6472 62.9748 22.0797C65.186 22.237 67.3355 22.8795 69.2704 23.9616C71.2052 25.0436 72.8779 26.5386 74.1696 28.3403C75.4613 30.142 76.3401 32.2062 76.7437 34.386C77.1474 36.5658 77.0658 38.8078 76.5049 40.9525C75.9439 43.0972 74.9174 45.092 73.4982 46.7951C72.079 48.4982 70.3021 49.8677 68.2938 50.8063C66.2854 51.7449 64.0949 52.2295 61.878 52.2257C59.6612 52.2219 57.4724 51.7297 55.4673 50.7842C55.5608 50.479 55.6295 50.1627 55.7505 49.8712C56.2373 48.719 56.944 47.685 57.813 46.8132C58.6895 45.9346 59.728 45.2342 60.871 44.7507C62.0594 44.2517 63.3359 43.9964 64.6248 44C64.9894 44 65.3392 43.8551 65.597 43.5973C65.8549 43.3394 65.9998 42.9897 65.9998 42.625C65.9998 42.2603 65.8549 41.9106 65.597 41.6527C65.3392 41.3949 64.9894 41.25 64.6248 41.25C62.1916 41.245 59.8113 41.9591 57.7828 43.3027C55.7543 44.6462 54.168 46.5593 53.2233 48.8015C52.5798 50.3281 52.2488 51.9683 52.2498 53.625V75.625C52.2498 82.456 57.7938 88 64.6248 88C64.9894 88 65.3392 87.8551 65.597 87.5973C65.8549 87.3394 65.9998 86.9897 65.9998 86.625C65.9998 86.2603 65.8549 85.9106 65.597 85.6527C65.3392 85.3949 64.9894 85.25 64.6248 85.25C63.3588 85.2569 62.1041 85.0127 60.9333 84.5314C59.7624 84.0502 58.6986 83.3415 57.8034 82.4463C56.9083 81.5512 56.1996 80.4874 55.7183 79.3165C55.2371 78.1456 54.9928 76.8909 54.9998 75.625V53.625L55.0053 53.57C58.0756 54.8616 61.4461 55.268 64.7354 54.7431C68.0247 54.2182 71.1014 52.783 73.6173 50.6C76.3433 48.2236 78.2846 45.0764 79.1851 41.5738C80.0855 38.0713 79.9027 34.378 78.6608 30.9815C77.4736 27.7606 75.383 24.9503 72.6395 22.8872C69.896 20.824 66.6158 19.5956 63.192 19.349C63.2113 13.4777 60.607 7.74949 55.7395 4.00674C52.3726 1.41328 48.2387 0.00818018 43.9888 0.0109927ZM43.0318 5.53299V5.53849C42.9997 5.53737 42.9676 5.53737 42.9355 5.53849C39.9262 5.77361 37.0778 6.99185 34.8291 9.00546C32.5804 11.0191 31.0564 13.7163 30.4918 16.6815C30.4541 16.8603 30.4525 17.0447 30.487 17.2241C30.5215 17.4035 30.5914 17.5742 30.6926 17.7263C30.7938 17.8784 30.9242 18.0088 31.0764 18.1099C31.2286 18.211 31.3993 18.2807 31.5788 18.3151C31.7582 18.3494 31.9426 18.3477 32.1214 18.3099C32.3001 18.2722 32.4695 18.1992 32.6197 18.0953C32.77 17.9913 32.898 17.8585 32.9963 17.7045C33.0946 17.5505 33.1612 17.3785 33.1923 17.1985C33.6409 14.8238 34.8594 12.6631 36.6594 11.0505C38.4593 9.43797 40.7405 8.46337 43.15 8.27749C43.5022 8.24591 43.8288 8.07984 44.0617 7.81377C44.2947 7.54771 44.4162 7.20211 44.401 6.8488C44.3857 6.49548 44.235 6.16162 43.98 5.91657C43.725 5.67153 43.3854 5.53416 43.0318 5.53299ZM20.5175 26.2267V26.2322C20.3012 26.2454 20.0911 26.3095 19.9043 26.4192C18.4822 27.2457 17.2391 28.3474 16.2478 29.6599C15.2564 30.9724 14.5367 32.4693 14.1306 34.0632C13.7245 35.6571 13.6402 37.316 13.8827 38.9428C14.1252 40.5696 14.6895 42.1318 15.5428 43.538C15.7317 43.8502 16.0368 44.0745 16.3911 44.1616C16.7454 44.2488 17.1198 44.1916 17.432 44.0027C17.7442 43.8138 17.9685 43.5087 18.0557 43.1544C18.1428 42.8001 18.0857 42.4257 17.8968 42.1135C17.2335 41.0198 16.7948 39.8048 16.6065 38.5397C16.4181 37.2745 16.4839 35.9845 16.7998 34.745C17.1158 33.5055 17.6756 32.3414 18.4466 31.3208C19.2176 30.3002 20.1843 29.4435 21.2903 28.8007C21.5651 28.6487 21.7795 28.4072 21.898 28.1164C22.0165 27.8256 22.0319 27.503 21.9416 27.2022C21.8513 26.9014 21.6608 26.6406 21.4017 26.4632C21.1426 26.2857 20.8306 26.2023 20.5175 26.2267Z" fill="white"/>
</svg>
